<svg version="1.1" xmlns="http://www.w3.org/2000/svg" viewBox="0 0 3714.8922396401513 2071.641572058352" width="3714.8922396401513" height="2071.641572058352" filter="invert(93%) hue-rotate(180deg)">
  <!-- svg-source:excalidraw -->
  
  <defs>
    <style class="style-fonts">
      @font-face {
        font-family: "Virgil";
        src: url("https://excalidraw.com/Virgil.woff2");
      }
      @font-face {
        font-family: "Cascadia";
        src: url("https://excalidraw.com/Cascadia.woff2");
      }
      @font-face {
        font-family: "Assistant";
        src: url("https://excalidraw.com/Assistant-Regular.woff2");
      }
    </style>
    
  </defs>
  <rect x="0" y="0" width="3714.8922396401513" height="2071.641572058352" fill="#ffffff"></rect><g stroke-opacity="0" fill-opacity="0" stroke-linecap="round" transform="translate(1410.72607051467 1939.3760477402009) rotate(0 58.378661581835615 58.37866158183556)"><path d="M69.95 1.27 C78.52 1.88, 87.16 6.3, 94.28 11.8 C101.41 17.3, 109.14 25.92, 112.7 34.28 C116.26 42.64, 116.54 52.77, 115.65 61.95 C114.75 71.12, 111.76 81.54, 107.31 89.33 C102.85 97.12, 96.59 104.17, 88.91 108.68 C81.24 113.19, 70.3 116, 61.27 116.4 C52.24 116.79, 42.81 114.64, 34.72 111.03 C26.63 107.42, 18.27 101.91, 12.74 94.73 C7.2 87.55, 3 76.82, 1.5 67.96 C-0.01 59.1, 1.12 50.15, 3.72 41.58 C6.31 33.01, 10.81 22.9, 17.06 16.53 C23.32 10.16, 31.79 5.63, 41.25 3.34 C50.71 1.06, 67.95 2.82, 73.83 2.81 C79.71 2.8, 77 2.48, 76.54 3.27 M66.79 1.99 C75.21 2.49, 84.8 6.23, 92.15 11.39 C99.51 16.55, 106.63 24.85, 110.92 32.95 C115.22 41.06, 118.08 51.18, 117.92 60.01 C117.76 68.84, 114.49 78.1, 109.96 85.96 C105.43 93.82, 98.08 102.01, 90.74 107.17 C83.4 112.34, 74.76 115.8, 65.93 116.95 C57.1 118.11, 46.39 117.6, 37.73 114.08 C29.07 110.56, 19.89 102.97, 13.95 95.84 C8.02 88.71, 4.32 79.95, 2.1 71.32 C-0.11 62.69, -1.48 52.91, 0.65 44.07 C2.78 35.23, 8.76 24.82, 14.9 18.28 C21.03 11.74, 29.02 7.8, 37.46 4.84 C45.89 1.89, 60.86 1.24, 65.48 0.54 C70.1 -0.16, 65.01 -0.09, 65.2 0.67" stroke="#1e1e1e" stroke-width="1" fill="none"></path></g><g transform="translate(1411.974788248849 2016.1125349381425) rotate(0 57.12994384765625 12.5)"><text x="57.12994384765625" y="17.52" font-family="Virgil, Segoe UI Emoji" font-size="20px" fill="#1e1e1e" text-anchor="middle" style="white-space: pre;" direction="ltr" dominant-baseline="alphabetic">PostgreSQL</text></g><g stroke-linecap="round"><g transform="translate(1444.1919165696459 1972.4520394538388) rotate(0 21.235566977860202 10.82858563977527)"><path d="M0.09 0.82 C0.06 5.5, 0.21 22.21, 0.3 27.83 C0.39 33.46, -0.48 33.07, 0.62 34.57 C1.71 36.08, 4.43 36.01, 6.87 36.86 C9.31 37.71, 11.96 38.95, 15.26 39.66 C18.56 40.37, 23.33 41.66, 26.68 41.12 C30.02 40.57, 32.98 37.72, 35.32 36.41 C37.65 35.09, 39.62 34.63, 40.71 33.22 C41.8 31.81, 41.36 31.62, 41.84 27.96 C42.31 24.31, 43.5 16.74, 43.56 11.3 C43.62 5.86, 42.19 -0.81, 42.2 -4.69 C42.22 -8.58, 44.5 -10.17, 43.68 -12.01 C42.86 -13.85, 39.95 -14.75, 37.28 -15.72 C34.61 -16.7, 31.21 -17.37, 27.67 -17.88 C24.14 -18.4, 19.87 -18.99, 16.05 -18.8 C12.23 -18.62, 7.26 -17.98, 4.76 -16.78 C2.27 -15.57, 1.67 -13.15, 1.07 -11.55 C0.46 -9.95, 1.24 -9.29, 1.16 -7.17 C1.08 -5.04, 0.75 -0.1, 0.57 1.18 M-1.33 0.21 C-1.52 5.08, -1.21 23.69, -0.49 29.12 C0.23 34.56, 1.76 31.45, 2.97 32.82 C4.19 34.19, 4.44 36.23, 6.81 37.35 C9.19 38.46, 14.26 39, 17.25 39.52 C20.23 40.04, 21.57 40.65, 24.7 40.48 C27.84 40.32, 33.59 39.75, 36.05 38.55 C38.52 37.35, 38.26 35.22, 39.51 33.28 C40.76 31.34, 43.3 30.59, 43.56 26.92 C43.82 23.24, 41.3 16.84, 41.07 11.23 C40.84 5.61, 41.86 -2.79, 42.16 -6.76 C42.45 -10.73, 43.65 -10.98, 42.84 -12.62 C42.04 -14.26, 39.87 -15.77, 37.31 -16.62 C34.75 -17.47, 31.48 -17.24, 27.48 -17.73 C23.47 -18.22, 16.98 -19.85, 13.27 -19.55 C9.56 -19.26, 7.44 -17.46, 5.2 -15.97 C2.95 -14.49, 0.59 -12.12, -0.2 -10.63 C-1 -9.15, 0.48 -8.6, 0.42 -7.09 C0.37 -5.58, -0.54 -2.62, -0.52 -1.6" stroke="#1e1e1e" stroke-width="1" fill="none"></path></g></g><mask></mask><g stroke-linecap="round"><g transform="translate(1444.5202580972173 1962.6639530670614) rotate(0 21.55397016867053 4.02250906826464)"><path d="M0.14 -0.21 C0.82 0.67, 1.66 4.29, 4.13 5.66 C6.6 7.03, 11.25 7.54, 14.95 8 C18.65 8.45, 22.69 8.69, 26.31 8.4 C29.93 8.11, 33.92 7.51, 36.68 6.27 C39.45 5.02, 41.88 1.75, 42.88 0.95 M-0.46 -0.8 C0.39 -0.09, 2.63 3.44, 5.12 4.96 C7.61 6.48, 10.93 7.7, 14.47 8.32 C18 8.94, 22.72 8.95, 26.33 8.67 C29.94 8.39, 33.26 8.01, 36.14 6.63 C39.01 5.25, 42.44 1.34, 43.56 0.4" stroke="#1e1e1e" stroke-width="1" fill="none"></path></g></g><mask></mask><g stroke-linecap="round"><g transform="translate(1444.1688576483089 1971.9272332155936) rotate(0 21.368532603295655 4.8155750525256735)"><path d="M-0.47 0.52 C0.23 1.32, 1.75 3.34, 4.33 4.6 C6.92 5.86, 11.3 7.31, 15.03 8.07 C18.77 8.84, 23.14 9.61, 26.72 9.22 C30.31 8.84, 33.88 7.06, 36.53 5.76 C39.18 4.47, 41.64 2.17, 42.64 1.44 M0.29 0.31 C0.88 1.17, 1.38 3.67, 3.77 5.03 C6.15 6.38, 10.73 7.9, 14.59 8.44 C18.46 8.97, 23.41 8.67, 26.96 8.24 C30.51 7.81, 33.2 7.05, 35.9 5.87 C38.61 4.68, 42.07 1.97, 43.21 1.15" stroke="#1e1e1e" stroke-width="1" fill="none"></path></g></g><mask></mask><g stroke-linecap="round"><g transform="translate(1443.8680375077602 1978.6384783231808) rotate(0 21.407459079535798 4.354647889159082)"><path d="M-0.26 -0.54 C0.55 0.15, 1.8 3.11, 4.42 4.68 C7.04 6.25, 11.76 8.22, 15.45 8.89 C19.14 9.57, 23.1 9.16, 26.57 8.72 C30.04 8.28, 33.63 7.48, 36.29 6.26 C38.96 5.04, 41.42 2.2, 42.56 1.39 M0.6 0.37 C1.37 1.35, 1.46 3.87, 3.9 5.14 C6.33 6.42, 11.42 7.34, 15.23 8.01 C19.03 8.68, 23.06 9.38, 26.73 9.14 C30.39 8.91, 34.49 7.96, 37.21 6.62 C39.94 5.27, 42.01 2.01, 43.08 1.07" stroke="#1e1e1e" stroke-width="1" fill="none"></path></g></g><mask></mask><g stroke-opacity="0" fill-opacity="0" stroke-linecap="round" transform="translate(2143.4845439985393 1942.5295037345663) rotate(0 58.378661581835615 58.37866158183567)"><path d="M61.75 -0.89 C70.48 -1.36, 80.4 3.62, 88.15 8.36 C95.91 13.11, 103.65 19.97, 108.28 27.57 C112.9 35.18, 115.46 44.89, 115.91 54.01 C116.36 63.13, 114.47 73.83, 110.99 82.32 C107.51 90.8, 101.88 99.23, 95.04 104.91 C88.19 110.6, 78.76 114.94, 69.9 116.44 C61.03 117.94, 50.63 116.59, 41.86 113.9 C33.09 111.21, 23.9 106.69, 17.29 100.29 C10.68 93.89, 5.09 84.12, 2.2 75.5 C-0.69 66.87, -1.6 57.24, -0.04 48.55 C1.52 39.86, 5.8 30.74, 11.56 23.37 C17.31 15.99, 24.18 7.95, 34.49 4.3 C44.8 0.65, 65.25 1.08, 73.4 1.48 C81.56 1.88, 83.61 5.76, 83.42 6.72 M53.83 -0.27 C62.22 -1.86, 73.88 0.59, 82.04 4.39 C90.21 8.19, 97.43 15.66, 102.82 22.53 C108.22 29.4, 112.49 36.96, 114.43 45.63 C116.36 54.3, 116.53 65.76, 114.44 74.54 C112.35 83.32, 108.34 91.55, 101.89 98.3 C95.43 105.06, 84.27 111.98, 75.71 115.09 C67.14 118.21, 59.15 118.8, 50.49 117.01 C41.84 115.21, 31.18 109.8, 23.77 104.34 C16.35 98.87, 10 92.18, 6.01 84.21 C2.03 76.23, -0.25 65.66, -0.16 56.48 C-0.08 47.3, 1.96 37, 6.53 29.14 C11.1 21.29, 19.51 14.12, 27.26 9.35 C35.01 4.58, 48.46 1.66, 53.01 0.52 C57.57 -0.63, 54.17 1.81, 54.59 2.49" stroke="#1e1e1e" stroke-width="1" fill="none"></path></g><g transform="translate(2098.343308119437 2025.4807868122716) rotate(0 103.5198974609375 12.5)"><text x="103.5198974609375" y="17.52" font-family="Virgil, Segoe UI Emoji" font-size="20px" fill="#1e1e1e" text-anchor="middle" style="white-space: pre;" direction="ltr" dominant-baseline="alphabetic">Monobank API server</text></g><g stroke-linecap="round" transform="translate(2183.229025581897 1951.3355438205322) rotate(0 18.63417999847718 34.78380266382396)"><path d="M0 0 C11.7 -2.22, 22.7 -0.15, 37.27 0 M0 0 C10.69 -0.43, 22.84 0.77, 37.27 0 M37.27 0 C39.14 25.22, 37.93 52.5, 37.27 69.57 M37.27 0 C37.46 16.62, 37.8 34.98, 37.27 69.57 M37.27 69.57 C30.91 69.66, 23.79 68.94, 0 69.57 M37.27 69.57 C26.83 69.25, 16.68 69.39, 0 69.57 M0 69.57 C-1.88 52.09, -0.55 36.51, 0 0 M0 69.57 C1.51 51.56, 0.84 31.73, 0 0" stroke="#1e1e1e" stroke-width="1" fill="none"></path></g><g stroke-linecap="round"><g transform="translate(2188.000768446911 1959.0314944864876) rotate(0 14.02719493021283 0.022667569436748636)"><path d="M-0.54 -0.14 C4.16 -0.14, 23.78 0.07, 28.6 0.02 M0.18 -0.69 C4.79 -0.6, 23.57 0.62, 28.18 0.73" stroke="#1e1e1e" stroke-width="1" fill="none"></path></g></g><mask></mask><g stroke-linecap="round"><g transform="translate(2187.088865748139 1965.435292264096) rotate(0 13.85417860840829 -0.1726536590674641)"><path d="M0.03 0.02 C4.84 -0.02, 23.64 -0.33, 28.33 -0.4 M-0.63 -0.44 C4.14 -0.41, 22.78 0.02, 27.78 0.09" stroke="#1e1e1e" stroke-width="1" fill="none"></path></g></g><mask></mask><g stroke-linecap="round"><g transform="translate(2187.2151016243715 1971.8390900417053) rotate(0 14.514410254595873 0.06184977631517086)"><path d="M-0.24 -0.4 C4.46 -0.47, 23.4 -0.5, 28.22 -0.39 M0.64 0.58 C5.51 0.57, 24.65 0.32, 29.27 0.11" stroke="#1e1e1e" stroke-width="1" fill="none"></path></g></g><mask></mask><g stroke-linecap="round"><g transform="translate(2187.1295662556013 1978.242887819314) rotate(0 14.151982117789203 0.02619660548180036)"><path d="M-0.36 -0.39 C4.46 -0.27, 23.77 0.14, 28.66 0.27 M0.46 0.6 C5.24 0.59, 23.55 -0.38, 28.27 -0.55" stroke="#1e1e1e" stroke-width="1" fill="none"></path></g></g><mask></mask><g stroke-linecap="round" transform="translate(2208.670275201791 1985.1711135153646) rotate(0 3.320581637643386 2.4149684637405926)"><path d="M3.93 -0.07 C4.56 -0.06, 5.33 0.56, 5.75 0.92 C6.18 1.29, 6.48 1.61, 6.47 2.13 C6.45 2.65, 6.1 3.54, 5.66 4.03 C5.22 4.51, 4.46 5, 3.84 5.04 C3.21 5.08, 2.47 4.56, 1.91 4.26 C1.36 3.97, 0.75 3.68, 0.5 3.27 C0.24 2.85, 0.15 2.25, 0.37 1.76 C0.59 1.26, 1.27 0.55, 1.83 0.31 C2.39 0.08, 3.4 0.38, 3.74 0.35 C4.07 0.32, 3.87 0.11, 3.85 0.13 M2.85 -0.34 C3.56 -0.45, 4.67 0.16, 5.37 0.51 C6.07 0.86, 6.95 1.19, 7.03 1.77 C7.11 2.35, 6.17 3.48, 5.84 4.02 C5.5 4.55, 5.59 4.92, 5.02 4.99 C4.45 5.07, 3.15 4.63, 2.41 4.46 C1.68 4.28, 1.02 4.31, 0.61 3.93 C0.2 3.55, -0.05 2.75, -0.03 2.2 C-0.02 1.64, 0.14 0.93, 0.69 0.58 C1.24 0.23, 2.88 0.16, 3.27 0.09 C3.66 0.02, 2.98 0.07, 3.02 0.16" stroke="#1e1e1e" stroke-width="1" fill="none"></path></g><g stroke-linecap="round" transform="translate(2726.2421151280714 10) rotate(0 44.51507219483756 44.515072194837614)"><path d="M39.87 0.39 C47.24 -1.25, 57.04 0.55, 64.15 4.2 C71.25 7.85, 78.36 15.33, 82.49 22.3 C86.63 29.26, 89.38 37.99, 88.98 45.97 C88.58 53.96, 84.87 63.68, 80.09 70.21 C75.32 76.74, 67.61 82.27, 60.32 85.16 C53.03 88.04, 44.06 88.86, 36.36 87.53 C28.66 86.2, 19.97 82.71, 14.11 77.16 C8.25 71.62, 3.27 62.25, 1.19 54.27 C-0.89 46.29, -1.11 36.71, 1.64 29.29 C4.4 21.86, 10.81 14.53, 17.71 9.71 C24.61 4.9, 38.63 1.8, 43.03 0.39 C47.43 -1.01, 44.22 0.65, 44.09 1.29 M40.74 1.34 C48.1 0.14, 55.96 2.25, 62.99 5.85 C70.02 9.46, 78.82 16.48, 82.94 22.98 C87.06 29.47, 87.92 36.82, 87.71 44.82 C87.49 52.83, 86.01 64.21, 81.67 71.01 C77.34 77.81, 69.35 82.78, 61.69 85.62 C54.04 88.46, 43.78 89.3, 35.74 88.07 C27.7 86.84, 19.06 83.72, 13.47 78.24 C7.88 72.76, 3.92 63.31, 2.2 55.21 C0.47 47.1, 0.57 36.99, 3.13 29.64 C5.69 22.29, 11.51 15.87, 17.58 11.11 C23.65 6.34, 35.8 2.8, 39.56 1.07 C43.31 -0.66, 40.12 0.37, 40.12 0.73" stroke="#1e1e1e" stroke-width="1" fill="none"></path></g><g stroke-linecap="round" transform="translate(2745.995777470722 29.74023625807274) rotate(0 24.47855503247729 24.47855503247726)"><path d="M29.83 0.33 C34.73 1.17, 40.69 5.74, 43.88 9.96 C47.06 14.19, 49.24 20.45, 48.91 25.67 C48.58 30.89, 45.56 37.49, 41.89 41.29 C38.21 45.09, 32 47.94, 26.86 48.48 C21.73 49.03, 15.36 47.37, 11.07 44.56 C6.78 41.76, 2.64 36.69, 1.12 31.65 C-0.4 26.61, -0.05 19.23, 1.95 14.32 C3.95 9.41, 8.19 4.41, 13.12 2.18 C18.06 -0.05, 28.36 1.01, 31.57 0.96 C34.78 0.91, 32.6 1.44, 32.39 1.86 M23.23 -0.11 C28.32 -0.51, 35.86 2.32, 39.94 5.64 C44.01 8.96, 46.62 14.69, 47.67 19.82 C48.72 24.95, 48.66 31.99, 46.24 36.44 C43.82 40.88, 37.95 44.5, 33.14 46.49 C28.32 48.48, 22.22 49.85, 17.35 48.37 C12.47 46.88, 6.79 42.11, 3.86 37.57 C0.93 33.02, -0.86 26.19, -0.23 21.09 C0.4 15.99, 3.61 10.49, 7.63 6.95 C11.65 3.41, 21.17 0.99, 23.88 -0.15 C26.6 -1.29, 23.89 -0.45, 23.93 0.09" stroke="#1e1e1e" stroke-width="1" fill="none"></path></g><g stroke-linecap="round"><g transform="translate(2770.474332503198 54.21879129054963) rotate(0 8.262208920626563 3.8492317036743486)"><path d="M0.51 -0.12 C3.27 1.15, 13.84 6.49, 16.41 7.83 M0.11 -0.66 C2.81 0.66, 13.2 6.86, 16.03 8.36" stroke="#1e1e1e" stroke-width="1" fill="none"></path></g></g><mask></mask><g stroke-linecap="round"><g transform="translate(2770.474332503198 54.21879129054963) rotate(0 4.158102506172781 -7.945562775733492)"><path d="M0.09 -0.33 C1.31 -3.07, 6.43 -13.92, 7.79 -16.58 M-0.52 0.69 C0.82 -1.97, 7.42 -13.28, 8.84 -16.02" stroke="#1e1e1e" stroke-width="1" fill="none"></path></g></g><mask></mask><g stroke-linecap="round"><g transform="translate(2745.995777470722 54.21879129054963) rotate(0 3.996759317461965 0.19716699894829048)"><path d="M-0.24 -0.17 C1.12 -0.13, 6.86 0.02, 8.23 0 M0.29 0.51 C1.6 0.62, 6.76 0.54, 7.99 0.45" stroke="#1e1e1e" stroke-width="1" fill="none"></path></g></g><mask></mask><g stroke-linecap="round"><g transform="translate(2770.474332503198 70.537827978868) rotate(0 -0.23165413288631953 3.938666733732532)"><path d="M0.07 0 C0.08 1.34, -0.16 6.57, -0.17 7.88 M-0.32 -0.31 C-0.35 1.08, -0.55 6.79, -0.53 8.19" stroke="#1e1e1e" stroke-width="1" fill="none"></path></g></g><mask></mask><g stroke-linecap="round"><g transform="translate(2770.474332503198 29.74023625807274) rotate(0 0.06161857116046576 3.9207271386806894)"><path d="M-0.17 -0.28 C-0.18 1.03, 0.02 6.42, 0.01 7.84 M0.39 0.34 C0.33 1.68, -0.29 6.75, -0.27 8.12" stroke="#1e1e1e" stroke-width="1" fill="none"></path></g></g><mask></mask><g stroke-linecap="round"><g transform="translate(2786.793369191517 54.21879129054963) rotate(0 4.104715513660949 0.08660551960426233)"><path d="M0.01 -0.32 C1.36 -0.27, 6.63 -0.03, 7.94 0.03 M-0.42 0.28 C1.06 0.42, 7.12 0.46, 8.63 0.5" stroke="#1e1e1e" stroke-width="1" fill="none"></path></g></g><mask></mask><g stroke-opacity="0" fill-opacity="0" stroke-linecap="round" transform="translate(1842.5900962272376 1942.3239627728572) rotate(0 58.378661581835615 58.37866158183567)"><path d="M81.09 5.66 C89.45 8.4, 99.05 14.79, 104.86 21.84 C110.67 28.9, 114.25 39.04, 115.93 48 C117.62 56.96, 117.52 66.93, 114.96 75.61 C112.41 84.3, 107.03 93.83, 100.6 100.12 C94.17 106.42, 84.98 110.75, 76.38 113.38 C67.79 116.01, 58.07 117.35, 49.02 115.9 C39.98 114.46, 29.33 110.3, 22.11 104.69 C14.89 99.08, 9.4 90.52, 5.71 82.25 C2.02 73.98, -0.29 63.88, -0.04 55.09 C0.21 46.29, 2.41 37.15, 7.2 29.49 C11.98 21.83, 20.87 13.94, 28.67 9.14 C36.46 4.34, 44.42 0.85, 53.94 0.68 C63.47 0.5, 79.62 6.46, 85.81 8.07 C92 9.67, 91.31 9.66, 91.07 10.31 M40.83 2.65 C48.93 -1.24, 60.76 -2.1, 69.39 -0.37 C78.02 1.37, 85.65 7.32, 92.6 13.06 C99.54 18.8, 106.9 25.94, 111.06 34.05 C115.22 42.17, 117.99 52.77, 117.55 61.75 C117.11 70.74, 113.29 80.08, 108.42 87.96 C103.56 95.85, 96.03 104.24, 88.38 109.07 C80.74 113.91, 71.63 116.72, 62.57 116.99 C53.52 117.25, 42.33 114.32, 34.05 110.66 C25.78 107.01, 18.37 101.77, 12.91 95.06 C7.45 88.35, 2.98 79.28, 1.3 70.4 C-0.39 61.52, 0.13 50.8, 2.79 41.79 C5.44 32.79, 11.14 22.78, 17.24 16.38 C23.33 9.98, 35.66 5.69, 39.37 3.38 C43.08 1.07, 38.88 1.52, 39.51 2.51" stroke="#1e1e1e" stroke-width="1" fill="none"></path></g><g transform="translate(1790.2088777431554 2025.2752458505624) rotate(0 110.75988006591797 12.5)"><text x="110.75988006591797" y="17.52" font-family="Virgil, Segoe UI Emoji" font-size="20px" fill="#1e1e1e" text-anchor="middle" style="white-space: pre;" direction="ltr" dominant-baseline="alphabetic">Privatbank API server</text></g><g stroke-linecap="round" transform="translate(1882.3345778105959 1951.130002858823) rotate(0 18.63417999847718 34.78380266382396)"><path d="M0 0 C12.69 1.65, 30.23 -0.07, 37.27 0 M0 0 C12.38 0.32, 24.87 -0.11, 37.27 0 M37.27 0 C36.4 16.89, 38.44 32.51, 37.27 69.57 M37.27 0 C37.95 20.96, 37.53 39.68, 37.27 69.57 M37.27 69.57 C24.92 68.18, 11.97 68.91, 0 69.57 M37.27 69.57 C28.8 69.73, 20.44 69.09, 0 69.57 M0 69.57 C-0.07 55.31, 0.31 38.36, 0 0 M0 69.57 C0.33 48.77, -0.32 26.61, 0 0" stroke="#1e1e1e" stroke-width="1" fill="none"></path></g><g stroke-linecap="round"><g transform="translate(1887.1063206756098 1958.8259535247785) rotate(0 14.219179868524975 -0.1497553285352069)"><path d="M0.4 0.46 C5.2 0.56, 23.74 0.14, 28.5 0.12 M-0.06 0.23 C4.69 0.18, 23.23 -0.66, 28.03 -0.78" stroke="#1e1e1e" stroke-width="1" fill="none"></path></g></g><mask></mask><g stroke-linecap="round"><g transform="translate(1886.194417976838 1965.2297513023868) rotate(0 14.075323828285661 0.0010569653813945479)"><path d="M-0.07 0.12 C4.68 0.11, 24.12 0.35, 28.93 0.38 M-0.78 -0.29 C3.9 -0.21, 23.79 -0.33, 28.68 -0.38" stroke="#1e1e1e" stroke-width="1" fill="none"></path></g></g><mask></mask><g stroke-linecap="round"><g transform="translate(1886.3206538530703 1971.633549079996) rotate(0 14.319580313986194 -0.04926106544724007)"><path d="M0.35 0.38 C5.16 0.42, 23.99 0.37, 28.77 0.32 M-0.13 0.11 C4.63 -0.03, 23.6 -0.58, 28.44 -0.48" stroke="#1e1e1e" stroke-width="1" fill="none"></path></g></g><mask></mask><g stroke-linecap="round"><g transform="translate(1886.2351184843 1978.037346857605) rotate(0 14.328832870548638 0.4202993545327445)"><path d="M0.19 0.32 C4.97 0.27, 24.35 0.08, 29.03 0.08 M-0.37 0.01 C4.35 0.03, 23.87 0.91, 28.83 0.83" stroke="#1e1e1e" stroke-width="1" fill="none"></path></g></g><mask></mask><g stroke-linecap="round" transform="translate(1907.7758274304892 1984.9655725536554) rotate(0 3.320581637643386 2.4149684637405926)"><path d="M2.78 0.03 C3.43 -0.08, 4.7 -0.04, 5.32 0.24 C5.93 0.51, 6.36 1.1, 6.48 1.67 C6.6 2.25, 6.26 3.19, 6.02 3.71 C5.79 4.22, 5.67 4.54, 5.06 4.74 C4.45 4.95, 3.15 5.05, 2.36 4.93 C1.57 4.82, 0.69 4.56, 0.32 4.06 C-0.05 3.57, 0.01 2.53, 0.15 1.95 C0.28 1.37, 0.67 0.89, 1.12 0.57 C1.58 0.25, 2.48 0.08, 2.87 0.01 C3.26 -0.05, 3.43 0.09, 3.46 0.17 M2.8 0.13 C3.58 0.01, 4.79 0.32, 5.39 0.58 C5.98 0.84, 6.26 1.18, 6.38 1.7 C6.5 2.22, 6.37 3.22, 6.11 3.71 C5.85 4.21, 5.47 4.58, 4.83 4.69 C4.18 4.79, 2.94 4.48, 2.25 4.35 C1.56 4.22, 1.06 4.21, 0.69 3.91 C0.33 3.61, 0.02 3.08, 0.07 2.56 C0.12 2.04, 0.48 1.3, 0.99 0.8 C1.5 0.31, 2.84 -0.31, 3.11 -0.4 C3.37 -0.49, 2.68 0.21, 2.59 0.24" stroke="#1e1e1e" stroke-width="1" fill="none"></path></g><g stroke-opacity="0" fill-opacity="0" stroke-linecap="round" transform="translate(2425.145617810693 1944.8842488946807) rotate(0 58.37866158183567 58.37866158183567)"><path d="M49.58 0.02 C58.12 -2.17, 69.23 0.74, 77.87 3.8 C86.51 6.86, 95.38 11.91, 101.42 18.38 C107.47 24.86, 111.93 33.82, 114.14 42.64 C116.35 51.46, 116.35 62.54, 114.69 71.29 C113.03 80.05, 109.76 88.44, 104.21 95.19 C98.65 101.94, 89.94 108.07, 81.36 111.78 C72.78 115.5, 61.85 118.19, 52.72 117.45 C43.59 116.72, 33.94 112.49, 26.56 107.37 C19.18 102.25, 12.73 94.41, 8.42 86.72 C4.11 79.03, 1 70.17, 0.72 61.24 C0.44 52.32, 2.99 41.58, 6.75 33.17 C10.51 24.76, 15.58 16.38, 23.27 10.79 C30.95 5.2, 47.58 1.36, 52.86 -0.36 C58.14 -2.08, 54.89 -0.77, 54.94 0.47 M31.57 7.34 C38.6 2.9, 48.72 1.65, 57.76 1.47 C66.81 1.29, 77.76 2.17, 85.84 6.25 C93.92 10.32, 101.33 18.49, 106.24 25.93 C111.15 33.37, 114.37 42.21, 115.3 50.88 C116.23 59.56, 115.02 69.54, 111.82 77.99 C108.62 86.44, 102.86 95.19, 96.09 101.58 C89.33 107.98, 79.94 114.27, 71.23 116.36 C62.52 118.44, 52.17 116.68, 43.84 114.1 C35.5 111.52, 28.12 106.48, 21.21 100.88 C14.29 95.28, 6.02 88.59, 2.36 80.52 C-1.31 72.45, -2.11 61.87, -0.77 52.44 C0.56 43.02, 5.03 31.49, 10.36 23.97 C15.68 16.45, 27.49 10.23, 31.18 7.34 C34.88 4.45, 32.3 5.9, 32.51 6.62" stroke="#1e1e1e" stroke-width="1" fill="none"></path></g><g transform="translate(2390.0643718607907 2027.835531972386) rotate(0 93.45990753173828 12.5)"><text x="93.45990753173828" y="17.52" font-family="Virgil, Segoe UI Emoji" font-size="20px" fill="#1e1e1e" text-anchor="middle" style="white-space: pre;" direction="ltr" dominant-baseline="alphabetic">Beacon API server</text></g><g stroke-linecap="round" transform="translate(2464.8900993940515 1953.6902889806465) rotate(0 18.63417999847718 34.78380266382396)"><path d="M0 0 C10.43 -1.64, 21.37 1.05, 37.27 0 M0 0 C13.9 -0.66, 28.37 0.99, 37.27 0 M37.27 0 C36.39 19.95, 36.96 35.93, 37.27 69.57 M37.27 0 C37.79 27.27, 37.05 52.28, 37.27 69.57 M37.27 69.57 C27.42 67.78, 20.45 71.15, 0 69.57 M37.27 69.57 C29.97 69.86, 21.79 70.43, 0 69.57 M0 69.57 C1.24 45.43, -0.3 22.45, 0 0 M0 69.57 C-0.31 54.22, 0.06 36.47, 0 0" stroke="#1e1e1e" stroke-width="1" fill="none"></path></g><g stroke-linecap="round"><g transform="translate(2469.6618422590655 1961.386239646602) rotate(0 14.286383248465427 0.016916515939669807)"><path d="M-0.37 0.36 C4.38 0.41, 24.1 0.48, 28.94 0.38 M0.44 0.07 C5.11 -0.04, 24.05 -0.42, 28.7 -0.39" stroke="#1e1e1e" stroke-width="1" fill="none"></path></g></g><mask></mask><g stroke-linecap="round"><g transform="translate(2468.7499395602936 1967.7900374242104) rotate(0 14.283695561638183 0.07615939825791429)"><path d="M0.37 0.38 C5.21 0.28, 23.96 -0.09, 28.67 -0.23 M-0.1 0.1 C4.71 0.04, 23.55 0.39, 28.29 0.36" stroke="#1e1e1e" stroke-width="1" fill="none"></path></g></g><mask></mask><g stroke-linecap="round"><g transform="translate(2468.876175436526 1974.1938352018196) rotate(0 14.06970578049686 -0.40304043333503614)"><path d="M0.1 -0.23 C4.81 -0.36, 23.83 -0.56, 28.66 -0.45 M-0.52 -0.82 C4.1 -0.93, 23.36 -0.05, 28.27 0.02" stroke="#1e1e1e" stroke-width="1" fill="none"></path></g></g><mask></mask><g stroke-linecap="round"><g transform="translate(2468.7906400677557 1980.5976329794285) rotate(0 14.258005695095335 0.03255567347275701)"><path d="M0.08 -0.45 C4.91 -0.33, 24.34 0.35, 29.05 0.46 M-0.54 0.51 C4.25 0.5, 24.13 -0.06, 28.87 -0.27" stroke="#1e1e1e" stroke-width="1" fill="none"></path></g></g><mask></mask><g stroke-linecap="round" transform="translate(2490.3313490139444 1987.525858675479) rotate(0 3.320581637643386 2.4149684637405926)"><path d="M2.9 0.31 C3.53 0.26, 4.53 0.19, 5.18 0.42 C5.83 0.64, 6.58 1.1, 6.81 1.66 C7.03 2.22, 6.83 3.27, 6.53 3.78 C6.22 4.28, 5.69 4.55, 4.98 4.68 C4.27 4.8, 2.99 4.69, 2.28 4.5 C1.57 4.31, 1.11 3.97, 0.7 3.54 C0.29 3.1, -0.26 2.32, -0.19 1.9 C-0.13 1.47, 0.56 1.28, 1.08 0.98 C1.59 0.68, 2.54 0.24, 2.9 0.1 C3.25 -0.04, 3.15 0.13, 3.23 0.14 M3.82 0.3 C4.41 0.35, 5.09 0.43, 5.5 0.72 C5.91 1.01, 6.24 1.54, 6.25 2.05 C6.25 2.57, 5.98 3.27, 5.53 3.8 C5.08 4.33, 4.21 5.16, 3.53 5.23 C2.85 5.29, 1.94 4.59, 1.47 4.19 C1 3.8, 1 3.2, 0.7 2.85 C0.41 2.49, -0.39 2.43, -0.3 2.07 C-0.21 1.7, 0.53 1.09, 1.23 0.67 C1.93 0.26, 3.45 -0.34, 3.88 -0.41 C4.32 -0.47, 3.82 0.23, 3.85 0.28" stroke="#1e1e1e" stroke-width="1" fill="none"></path></g><g stroke-linecap="round" transform="translate(1344.1176062948066 323.705061428372) rotate(0 501.5317186050991 159.77236451869607)"><path d="M32 0 C259.69 1.72, 489.18 2.81, 971.06 0 M32 0 C285.78 1.38, 539.26 0.73, 971.06 0 M971.06 0 C993.75 -0.04, 1004.77 11.1, 1003.06 32 M971.06 0 C994.02 -0.02, 1003.77 9.15, 1003.06 32 M1003.06 32 C1002.71 89.09, 1001.01 148.83, 1003.06 287.54 M1003.06 32 C1004.1 109.05, 1004.63 186.36, 1003.06 287.54 M1003.06 287.54 C1004.67 309.44, 993.01 317.69, 971.06 319.54 M1003.06 287.54 C1002.04 308.97, 993.46 321.55, 971.06 319.54 M971.06 319.54 C736.95 322.14, 504.05 322.46, 32 319.54 M971.06 319.54 C640.51 319.04, 310.59 319.25, 32 319.54 M32 319.54 C9.59 321.43, -1.12 307.64, 0 287.54 M32 319.54 C11.84 319.19, -1.29 310.45, 0 287.54 M0 287.54 C2.77 197.61, 0.71 107.11, 0 32 M0 287.54 C0.07 221.94, 0.03 154.33, 0 32 M0 32 C1.48 10.59, 9.54 -0.93, 32 0 M0 32 C1.97 8.85, 9.76 2.28, 32 0" stroke="#1e1e1e" stroke-width="2" fill="none"></path></g><g stroke-linecap="round" transform="translate(1473.3787115261428 385.75112124009473) rotate(0 95.20052162851118 40.46722809646781)"><path d="M20.23 0 C60.87 -2.19, 104.69 -2.58, 170.17 0 M20.23 0 C71.2 -0.93, 120.92 -0.44, 170.17 0 M170.17 0 C182.81 -0.03, 191.15 6.13, 190.4 20.23 M170.17 0 C182.39 0.88, 189.34 6.59, 190.4 20.23 M190.4 20.23 C190.38 30.36, 190.52 44.32, 190.4 60.7 M190.4 20.23 C189.78 33.3, 190.12 45.46, 190.4 60.7 M190.4 60.7 C190.5 74.25, 183.49 82.07, 170.17 80.93 M190.4 60.7 C191.2 74.2, 185.78 82.94, 170.17 80.93 M170.17 80.93 C115.65 80.65, 57.47 81.74, 20.23 80.93 M170.17 80.93 C122.67 79.64, 72.88 78.8, 20.23 80.93 M20.23 80.93 C5.26 82.75, 1.5 75.1, 0 60.7 M20.23 80.93 C5.31 78.72, 1.28 76.13, 0 60.7 M0 60.7 C-0.57 46.78, -1.98 36.12, 0 20.23 M0 60.7 C-0.09 48.65, -0.62 35.63, 0 20.23 M0 20.23 C-0.47 6.02, 5.81 -0.44, 20.23 0 M0 20.23 C0.64 7.46, 7.37 0.18, 20.23 0" stroke="#1e1e1e" stroke-width="2" fill="none"></path></g><g transform="translate(1493.40853812311 415.54417550570747) rotate(0 71.1442184448242 11.78421933022178)"><text x="0" y="16.516761813238848" font-family="Virgil, Segoe UI Emoji" font-size="18.85475092835485px" fill="#1e1e1e" text-anchor="start" style="white-space: pre;" direction="ltr" dominant-baseline="alphabetic">CurrencyHandler</text></g><g stroke-linecap="round" transform="translate(1966.1980352841424 384.7049999667015) rotate(0 88.53508588080024 37.63392735240772)"><path d="M18.82 0 C60.97 -0.5, 102.71 0.16, 158.25 0 M18.82 0 C70 1.06, 119.3 1.17, 158.25 0 M158.25 0 C172.15 0.39, 177.68 5.23, 177.07 18.82 M158.25 0 C171.56 -0.84, 176.41 5.89, 177.07 18.82 M177.07 18.82 C178.76 34.46, 178.64 49.08, 177.07 56.45 M177.07 18.82 C177.43 27.16, 177.54 35.08, 177.07 56.45 M177.07 56.45 C178.9 67.59, 170.69 74.76, 158.25 75.27 M177.07 56.45 C174.93 69.19, 168.68 73.27, 158.25 75.27 M158.25 75.27 C125 76.81, 94.35 75.08, 18.82 75.27 M158.25 75.27 C108.38 73.94, 60.38 74.07, 18.82 75.27 M18.82 75.27 C6.03 75.54, -1.33 70.93, 0 56.45 M18.82 75.27 C5.95 75.08, -2.11 70.05, 0 56.45 M0 56.45 C0.43 45.16, 2.06 33.31, 0 18.82 M0 56.45 C-0.16 41.53, 0.53 27.36, 0 18.82 M0 18.82 C0.57 6.42, 6.84 1.8, 18.82 0 M0 18.82 C1.38 6.96, 7.93 -1.39, 18.82 0" stroke="#1e1e1e" stroke-width="2" fill="none"></path></g><g transform="translate(1987.1315290481698 409.68364853000827) rotate(0 63.1258544921875 13.274311181881163)"><text x="0" y="18.605274552524637" font-family="Virgil, Segoe UI Emoji" font-size="21.238897891009863px" fill="#1e1e1e" text-anchor="start" style="white-space: pre;" direction="ltr" dominant-baseline="alphabetic">EmailHandler</text></g><g stroke-linecap="round" transform="translate(966.616492436495 703.0118813263789) rotate(0 868.4588395479989 230.4260226014359)"><path d="M32 0 C661.64 2.43, 1291.18 2.25, 1704.92 0 M32 0 C584.31 2.53, 1137.59 2, 1704.92 0 M1704.92 0 C1726.64 0.89, 1738.22 11.67, 1736.92 32 M1704.92 0 C1724.2 0.52, 1738.87 10.61, 1736.92 32 M1736.92 32 C1739.09 154.94, 1739.42 278.96, 1736.92 428.85 M1736.92 32 C1735.81 150.31, 1735.81 268.96, 1736.92 428.85 M1736.92 428.85 C1737.95 448.55, 1724.95 462.74, 1704.92 460.85 M1736.92 428.85 C1738.22 451.4, 1724.21 458.88, 1704.92 460.85 M1704.92 460.85 C1222.36 465.72, 738.45 465.4, 32 460.85 M1704.92 460.85 C1113.39 467.35, 521.33 467.39, 32 460.85 M32 460.85 C9.62 462.27, -1.96 448.87, 0 428.85 M32 460.85 C11.95 461.43, -0.73 451.27, 0 428.85 M0 428.85 C1.74 270.82, 0.32 115.92, 0 32 M0 428.85 C-2.14 348.71, -2 267.65, 0 32 M0 32 C1.63 11.56, 10.3 -1.53, 32 0 M0 32 C1.46 10.7, 11.85 1.56, 32 0" stroke="#1e1e1e" stroke-width="2" fill="none"></path></g><g stroke-linecap="round" transform="translate(1636.2396519780284 512.6062264316062) rotate(0 83.54774660328593 35.513941109840744)"><path d="M17.76 0 C60.11 0.93, 103.86 0.25, 149.34 0 M149.34 0 C160.92 -1.78, 168.23 5.15, 167.1 17.76 M167.1 17.76 C166.85 26.56, 166.95 37.82, 167.1 53.27 M167.1 53.27 C166.44 64.65, 161.42 72.57, 149.34 71.03 M149.34 71.03 C98.19 70.8, 49.68 72.17, 17.76 71.03 M17.76 71.03 C5.42 71.78, 0.64 63.88, 0 53.27 M0 53.27 C-0.32 41.55, 0.88 31.75, 0 17.76 M0 17.76 C-0.14 4.19, 5.61 -1.79, 17.76 0" stroke="#1e1e1e" stroke-width="2.5" fill="none" stroke-dasharray="1.5 8"></path></g><g transform="translate(1659.2773742202648 539.5324458860574) rotate(0 58.30190145293588 12.77431387064172)"><text x="0" y="17.904478321091432" font-family="Virgil, Segoe UI Emoji" font-size="20.438902193026745px" fill="#1e1e1e" text-anchor="start" style="white-space: pre;" direction="ltr" dominant-baseline="alphabetic">emailService</text></g><g stroke-linecap="round"><g transform="translate(1652.186619319733 473.0098207418772) rotate(0 9.609092984965685 17.558416871372636)"><path d="M-1.06 -0.11 C2.48 5.6, 16.8 29.1, 20.28 35.09 M0.58 -1.22 C4.06 4.58, 16.34 29.94, 19.39 36.34" stroke="#1e1e1e" stroke-width="2" fill="none"></path></g><g transform="translate(1652.186619319733 473.0098207418772) rotate(0 9.609092984965685 17.558416871372636)"><path d="M4.72 22.06 C7.86 25.53, 10.37 27.92, 19.39 36.34 M4.72 22.06 C9.02 26.66, 12.92 30.36, 19.39 36.34" stroke="#1e1e1e" stroke-width="2" fill="none"></path></g><g transform="translate(1652.186619319733 473.0098207418772) rotate(0 9.609092984965685 17.558416871372636)"><path d="M17.33 15.97 C17.73 20.67, 17.46 24.4, 19.39 36.34 M17.33 15.97 C17.65 22.36, 17.62 27.95, 19.39 36.34" stroke="#1e1e1e" stroke-width="2" fill="none"></path></g></g><mask></mask><g stroke-linecap="round" transform="translate(1563.4949067782406 766.2843278431911) rotate(0 95.20052162851118 40.46722809646781)"><path d="M20.23 0 C69.35 0.13, 122.32 0.77, 170.17 0 M20.23 0 C65.26 -1.41, 108.72 -0.81, 170.17 0 M170.17 0 C181.83 1.11, 189.07 6.97, 190.4 20.23 M170.17 0 C183.98 -0.61, 188.72 8.5, 190.4 20.23 M190.4 20.23 C190.72 30.92, 190.72 46.56, 190.4 60.7 M190.4 20.23 C191.34 35.17, 190.78 50.17, 190.4 60.7 M190.4 60.7 C188.57 75.5, 182.06 82.33, 170.17 80.93 M190.4 60.7 C191.58 73.89, 185.08 79.05, 170.17 80.93 M170.17 80.93 C128.33 79.48, 89.2 81.5, 20.23 80.93 M170.17 80.93 C128.67 81.86, 89.5 81.52, 20.23 80.93 M20.23 80.93 C7.83 81.63, -0.26 75.73, 0 60.7 M20.23 80.93 C7.43 82.35, 0.64 73.14, 0 60.7 M0 60.7 C-1.82 47.45, -0.19 36.81, 0 20.23 M0 60.7 C-1.16 48.69, -1.02 34.23, 0 20.23 M0 20.23 C-0.76 7.86, 7.91 -0.67, 20.23 0 M0 20.23 C1.93 8.37, 8.32 2.29, 20.23 0" stroke="#1e1e1e" stroke-width="2" fill="none"></path></g><g transform="translate(1599.5218052743835 795.1887139025595) rotate(0 54.948081970214844 11.784219330221788)"><text x="0" y="16.516761813238848" font-family="Virgil, Segoe UI Emoji" font-size="18.85475092835485px" fill="#1e1e1e" text-anchor="start" style="white-space: pre;" direction="ltr" dominant-baseline="alphabetic">EmailService</text></g><g stroke-linecap="round"><g transform="translate(1698.826248084678 761.4265406458859) rotate(0 5.907854442720577 -84.72467849560762)"><path d="M0.06 0.94 C1.87 -27.28, 9.84 -141.75, 11.75 -170.39" stroke="#1e1e1e" stroke-width="2.5" fill="none" stroke-dasharray="8 10"></path></g><g transform="translate(1698.826248084678 761.4265406458859) rotate(0 5.907854442720577 -84.72467849560762)"><path d="M18.68 -146.37 C17.87 -155.64, 13.39 -165.04, 11.75 -170.39" stroke="#1e1e1e" stroke-width="2.5" fill="none"></path></g><g transform="translate(1698.826248084678 761.4265406458859) rotate(0 5.907854442720577 -84.72467849560762)"><path d="M1.62 -147.53 C7.19 -156.38, 9.11 -165.34, 11.75 -170.39" stroke="#1e1e1e" stroke-width="2.5" fill="none"></path></g></g><mask></mask><g stroke-linecap="round" transform="translate(1966.9447725796442 533.4912181964019) rotate(0 83.54774660328593 35.513941109840744)"><path d="M17.76 0 C59.65 0.62, 100.82 -0.45, 149.34 0 M149.34 0 C160.53 -0.91, 166.75 5.08, 167.1 17.76 M167.1 17.76 C166.74 27.75, 167.73 35.19, 167.1 53.27 M167.1 53.27 C167.48 66.08, 161.89 70.26, 149.34 71.03 M149.34 71.03 C96.69 70.34, 46.29 70.89, 17.76 71.03 M17.76 71.03 C7.31 71.9, -0.12 66.41, 0 53.27 M0 53.27 C0.11 42.03, -0.61 30.87, 0 17.76 M0 17.76 C0.44 7.89, 6.85 -1.83, 17.76 0" stroke="#1e1e1e" stroke-width="2.5" fill="none" stroke-dasharray="1.5 8"></path></g><g transform="translate(1977.5403567943767 559.5287368137718) rotate(0 74.44831848144531 12.77431387064172)"><text x="0" y="17.904478321091432" font-family="Virgil, Segoe UI Emoji" font-size="20.438902193026745px" fill="#1e1e1e" text-anchor="start" style="white-space: pre;" direction="ltr" dominant-baseline="alphabetic">currencyService</text></g><g stroke-linecap="round"><g transform="translate(2083.108684356024 463.90073351523665) rotate(0 -22.061601666894035 34.19438380720022)"><path d="M0.09 -0.8 C-7.45 10.64, -37.16 57.62, -44.21 69.19 M-1.33 1.39 C-8.59 12.43, -35.24 55.95, -42.1 67.38" stroke="#1e1e1e" stroke-width="2" fill="none"></path></g><g transform="translate(2083.108684356024 463.90073351523665) rotate(0 -22.061601666894035 34.19438380720022)"><path d="M-37.21 42.87 C-40.3 50.29, -39.83 63.02, -42.1 67.38 M-37.21 42.87 C-37.79 50.83, -41.03 58.26, -42.1 67.38" stroke="#1e1e1e" stroke-width="2" fill="none"></path></g><g transform="translate(2083.108684356024 463.90073351523665) rotate(0 -22.061601666894035 34.19438380720022)"><path d="M-22.6 51.75 C-31.3 55.8, -36.4 65.14, -42.1 67.38 M-22.6 51.75 C-27.61 56.86, -35.3 61.58, -42.1 67.38" stroke="#1e1e1e" stroke-width="2" fill="none"></path></g></g><mask></mask><g stroke-linecap="round" transform="translate(2304.5304324487606 799.2316168244379) rotate(0 95.20052162851118 40.46722809646781)"><path d="M20.23 0 C62.31 0.99, 102.78 2.01, 170.17 0 M20.23 0 C70.96 -0.08, 121.81 0.24, 170.17 0 M170.17 0 C182.21 -1.89, 190.91 7.02, 190.4 20.23 M170.17 0 C181.75 -1.41, 189.09 4.54, 190.4 20.23 M190.4 20.23 C190.65 31.68, 191.81 41.56, 190.4 60.7 M190.4 20.23 C190.38 31.68, 190.81 43.32, 190.4 60.7 M190.4 60.7 C191.1 74.47, 183.36 80.12, 170.17 80.93 M190.4 60.7 C188.21 74.18, 181.37 81.94, 170.17 80.93 M170.17 80.93 C114.66 80.56, 57.03 80.56, 20.23 80.93 M170.17 80.93 C115.49 80.01, 60.94 81.47, 20.23 80.93 M20.23 80.93 C5.3 80.4, 1.52 73.4, 0 60.7 M20.23 80.93 C8.87 79.78, -1.2 74.97, 0 60.7 M0 60.7 C0.56 50.62, -0.42 45.47, 0 20.23 M0 60.7 C-0.61 51.7, 0.23 42.84, 0 20.23 M0 20.23 C0.34 8.52, 5.76 -1.34, 20.23 0 M0 20.23 C1.65 7.07, 4.85 -2.09, 20.23 0" stroke="#1e1e1e" stroke-width="2" fill="none"></path></g><g transform="translate(2329.8925945915626 828.1360028838062) rotate(0 70.03244018554688 11.784219330221788)"><text x="0" y="16.516761813238848" font-family="Virgil, Segoe UI Emoji" font-size="18.85475092835485px" fill="#1e1e1e" text-anchor="start" style="white-space: pre;" direction="ltr" dominant-baseline="alphabetic">CurrencyService</text></g><g stroke-linecap="round"><g transform="translate(2331.2387017174283 792.5964279529705) rotate(0 -110.45654588803188 -88.81893246068813)"><path d="M-0.25 -0.5 C-37.1 -30.18, -183.75 -147.58, -220.66 -177.14" stroke="#1e1e1e" stroke-width="2.5" fill="none" stroke-dasharray="8 10"></path></g><g transform="translate(2331.2387017174283 792.5964279529705) rotate(0 -110.45654588803188 -88.81893246068813)"><path d="M-196.98 -169.13 C-205.87 -170.97, -212.64 -175.45, -220.66 -177.14" stroke="#1e1e1e" stroke-width="2.5" fill="none"></path></g><g transform="translate(2331.2387017174283 792.5964279529705) rotate(0 -110.45654588803188 -88.81893246068813)"><path d="M-207.67 -155.78 C-213.05 -162.1, -216.22 -171.09, -220.66 -177.14" stroke="#1e1e1e" stroke-width="2.5" fill="none"></path></g></g><mask></mask><g stroke-linecap="round" transform="translate(2344.177887517987 1257.666669346599) rotate(0 90.41974998139517 38.435048299429525)"><path d="M19.22 0 C72.5 -1.42, 123.76 -0.95, 161.62 0 M161.62 0 C173.13 0.91, 182.58 4.92, 180.84 19.22 M180.84 19.22 C179.53 29.19, 180.87 41.16, 180.84 57.65 M180.84 57.65 C180 70.06, 173.17 76.81, 161.62 76.87 M161.62 76.87 C124.83 74.8, 91.94 77.72, 19.22 76.87 M19.22 76.87 C4.45 76.8, -0.07 71.41, 0 57.65 M0 57.65 C-0.4 47.49, 1.44 39.92, 0 19.22 M0 19.22 C-1.8 5.89, 4.52 -1.15, 19.22 0" stroke="#1e1e1e" stroke-width="2.5" fill="none" stroke-dasharray="1.5 8"></path></g><g transform="translate(2354.6831501171246 1283.9221333930907) rotate(0 78.5204341012145 12.294352382012619)"><text x="0" y="17.23176429862885" font-family="Virgil, Segoe UI Emoji" font-size="19.670963811220147px" fill="#1e1e1e" text-anchor="start" style="white-space: pre;" direction="ltr" dominant-baseline="alphabetic">CurrencyProvider</text></g><g stroke-linecap="round" transform="translate(1881.1959724728597 1268.7041306520616) rotate(0 90.41974998139517 38.435048299429525)"><path d="M19.22 0 C50.59 -1.67, 79.14 -1.33, 161.62 0 M161.62 0 C175.68 0.04, 182.75 8.08, 180.84 19.22 M180.84 19.22 C182.34 33.44, 180.26 45.78, 180.84 57.65 M180.84 57.65 C181.9 72.07, 173.78 78.72, 161.62 76.87 M161.62 76.87 C126.2 75.83, 91.06 76.63, 19.22 76.87 M19.22 76.87 C5.13 78.02, -0.85 69.56, 0 57.65 M0 57.65 C-0.75 51, -1.89 42.04, 0 19.22 M0 19.22 C-0.18 7.5, 4.44 -0.52, 19.22 0" stroke="#1e1e1e" stroke-width="2.5" fill="none" stroke-dasharray="1.5 8"></path></g><g transform="translate(1916.5855763886784 1294.9595946985532) rotate(0 54.300209045410156 12.294352382012619)"><text x="0" y="17.23176429862885" font-family="Virgil, Segoe UI Emoji" font-size="19.670963811220147px" fill="#1e1e1e" text-anchor="start" style="white-space: pre;" direction="ltr" dominant-baseline="alphabetic">HTTPClient</text></g><g stroke-linecap="round" transform="translate(924.9757584273391 1220.5048007485898) rotate(0 892.8539322417107 287.3043771931216)"><path d="M32 0 C654.06 3.5, 1277.59 2.86, 1753.71 0 M32 0 C454.38 3.35, 877.04 3.07, 1753.71 0 M1753.71 0 C1775.89 -0.41, 1786.76 11.83, 1785.71 32 M1753.71 0 C1776.33 -1.17, 1786.66 10.1, 1785.71 32 M1785.71 32 C1784.01 160.76, 1784.26 288.63, 1785.71 542.61 M1785.71 32 C1786.58 163.04, 1786.63 293.77, 1785.71 542.61 M1785.71 542.61 C1787.44 564.73, 1776.64 573.64, 1753.71 574.61 M1785.71 542.61 C1787.24 565, 1775.51 574.86, 1753.71 574.61 M1753.71 574.61 C1292.88 580.76, 831.91 580.1, 32 574.61 M1753.71 574.61 C1384.43 570.08, 1015.1 570.26, 32 574.61 M32 574.61 C10.52 573.35, 0.29 563.14, 0 542.61 M32 574.61 C9.73 575.93, 1.92 563.53, 0 542.61 M0 542.61 C-0.39 390.22, -0.43 237.62, 0 32 M0 542.61 C0.9 434.93, 1.15 326.65, 0 32 M0 32 C0.26 9.21, 11.06 -0.42, 32 0 M0 32 C-2.19 11.1, 8.63 -0.79, 32 0" stroke="#1e1e1e" stroke-width="2" fill="none"></path></g><g stroke-linecap="round" transform="translate(1895.1570528470475 1489.7488570735802) rotate(0 95.20052162851118 40.46722809646781)"><path d="M20.23 0 C65.16 -2.53, 110.26 -1.01, 170.17 0 M20.23 0 C80.79 0.78, 140.47 -0.02, 170.17 0 M170.17 0 C184.48 -0.72, 190.82 8.45, 190.4 20.23 M170.17 0 C181.73 -0.78, 189.58 8.63, 190.4 20.23 M190.4 20.23 C190.51 31.48, 188.77 45.08, 190.4 60.7 M190.4 20.23 C190.17 35.1, 191.27 52.63, 190.4 60.7 M190.4 60.7 C189.17 74.19, 182.46 79.8, 170.17 80.93 M190.4 60.7 C190.37 74.38, 184.07 82.23, 170.17 80.93 M170.17 80.93 C123.8 78.4, 79.09 81, 20.23 80.93 M170.17 80.93 C117.81 83.17, 64.27 82.12, 20.23 80.93 M20.23 80.93 C8.71 82.15, -0.2 75.37, 0 60.7 M20.23 80.93 C4.5 82.55, -2.2 75.12, 0 60.7 M0 60.7 C-2.23 47.85, 0.72 30.95, 0 20.23 M0 60.7 C0.38 45.93, -0.68 31.11, 0 20.23 M0 20.23 C-0.54 7.96, 6.02 1.14, 20.23 0 M0 20.23 C1.38 6.42, 6.68 -0.53, 20.23 0" stroke="#1e1e1e" stroke-width="2" fill="none"></path></g><g transform="translate(1909.8545438981807 1517.7645096650308) rotate(0 79.17158508300781 11.784219330221731)"><text x="0" y="16.516761813238848" font-family="Virgil, Segoe UI Emoji" font-size="18.85475092835485px" fill="#1e1e1e" text-anchor="start" style="white-space: pre;" direction="ltr" dominant-baseline="alphabetic">MonobankProvider</text></g><g stroke-linecap="round" transform="translate(2192.801592166781 1499.1979832366053) rotate(0 95.20052162851124 40.46722809646781)"><path d="M20.23 0 C74.27 -0.87, 130.53 -0.84, 170.17 0 M20.23 0 C59.26 2.28, 99.13 2.03, 170.17 0 M170.17 0 C184.28 -0.3, 190.71 4.8, 190.4 20.23 M170.17 0 C184.48 1.46, 188.32 7.01, 190.4 20.23 M190.4 20.23 C189.33 28.9, 190.16 37.63, 190.4 60.7 M190.4 20.23 C189.52 31, 189.38 39.07, 190.4 60.7 M190.4 60.7 C190.21 73.5, 185.18 80.05, 170.17 80.93 M190.4 60.7 C190.59 76.49, 185.66 81.1, 170.17 80.93 M170.17 80.93 C128.66 78.71, 90.92 79.62, 20.23 80.93 M170.17 80.93 C132.98 79.71, 95.62 80.24, 20.23 80.93 M20.23 80.93 C5.35 81.95, -0.67 74.95, 0 60.7 M20.23 80.93 C8.74 78.91, -0.53 75.27, 0 60.7 M0 60.7 C1.64 47.95, -1.6 36.59, 0 20.23 M0 60.7 C-0.58 44.4, -1.14 28.59, 0 20.23 M0 20.23 C0.75 4.97, 8.4 -0.78, 20.23 0 M0 20.23 C-0.49 5.62, 8.91 -1.79, 20.23 0" stroke="#1e1e1e" stroke-width="2" fill="none"></path></g><g transform="translate(2207.4990832179146 1527.2136358280559) rotate(0 81.5929946899414 11.784219330221731)"><text x="0" y="16.516761813238848" font-family="Virgil, Segoe UI Emoji" font-size="18.85475092835485px" fill="#1e1e1e" text-anchor="start" style="white-space: pre;" direction="ltr" dominant-baseline="alphabetic">PrivatbakProvider</text></g><g stroke-linecap="round" transform="translate(2453.8450806466485 1460.1930220956963) rotate(0 95.20052162851118 40.46722809646781)"><path d="M20.23 0 C58.73 2.56, 98.34 0.23, 170.17 0 M20.23 0 C78.12 -0.93, 133.99 -1.43, 170.17 0 M170.17 0 C182.83 1.05, 191.88 8.15, 190.4 20.23 M170.17 0 C185.23 -0.79, 189 6.9, 190.4 20.23 M190.4 20.23 C189.22 32.19, 191.43 43.18, 190.4 60.7 M190.4 20.23 C190.04 28.86, 190.61 37.93, 190.4 60.7 M190.4 60.7 C191.45 73.11, 184.8 82.52, 170.17 80.93 M190.4 60.7 C188.92 75.34, 184.82 81.18, 170.17 80.93 M170.17 80.93 C130.38 79.7, 92.53 78.2, 20.23 80.93 M170.17 80.93 C119.9 81.37, 70.03 81.28, 20.23 80.93 M20.23 80.93 C6.13 81.42, 0.31 73.63, 0 60.7 M20.23 80.93 C7.94 79.69, -2.13 76.06, 0 60.7 M0 60.7 C-0.93 50.78, 0.42 43.43, 0 20.23 M0 60.7 C0.1 51.81, -0.74 42.32, 0 20.23 M0 20.23 C-0.22 7.25, 8.13 1.92, 20.23 0 M0 20.23 C1.82 4.65, 7.02 1.93, 20.23 0" stroke="#1e1e1e" stroke-width="2" fill="none"></path></g><g transform="translate(2468.5425716977816 1488.2086746871469) rotate(0 69.6932373046875 11.784219330221731)"><text x="0" y="16.516761813238848" font-family="Virgil, Segoe UI Emoji" font-size="18.85475092835485px" fill="#1e1e1e" text-anchor="start" style="white-space: pre;" direction="ltr" dominant-baseline="alphabetic">BeaconProvider</text></g><g stroke-linecap="round" transform="translate(2365.773654811003 990.2205243000085) rotate(0 102.28974553879266 43.48066999885316)"><path d="M21.74 0 C76.64 -0.5, 130.62 1.52, 182.84 0 M182.84 0 C196.19 -1.5, 202.92 8.13, 204.58 21.74 M204.58 21.74 C203.33 35.16, 206.06 49.8, 204.58 65.22 M204.58 65.22 C205.26 78.4, 198.59 87.08, 182.84 86.96 M182.84 86.96 C148.41 87.2, 109.76 87.56, 21.74 86.96 M21.74 86.96 C7.21 88.43, 0.43 80.48, 0 65.22 M0 65.22 C0.98 49.41, -0.84 36.85, 0 21.74 M0 21.74 C1.32 8.28, 6.04 0.77, 21.74 0" stroke="#1e1e1e" stroke-width="2.5" fill="none" stroke-dasharray="1.5 8"></path></g><g transform="translate(2384.4408551029974 1019.9227158773037) rotate(0 88.07012910811534 12.77782529158469)"><text x="0" y="17.909399928685126" font-family="Virgil, Segoe UI Emoji" font-size="20.444520466535533px" fill="#1e1e1e" text-anchor="start" style="white-space: pre;" direction="ltr" dominant-baseline="alphabetic">currencyConverter</text></g><g stroke-linecap="round"><g transform="translate(2420.8850119991166 884.4782388366013) rotate(0 18.399227265313016 50.165837231678466)"><path d="M-0.64 0.93 C5.68 17.53, 31.21 82.51, 37.44 98.78 M1.23 0.38 C7.49 17.19, 31.05 83.45, 36.83 99.95" stroke="#1e1e1e" stroke-width="2" fill="none"></path></g><g transform="translate(2420.8850119991166 884.4782388366013) rotate(0 18.399227265313016 50.165837231678466)"><path d="M20.93 80.65 C26.48 86.81, 27.88 90.59, 36.83 99.95 M20.93 80.65 C25.64 84.22, 29 88.37, 36.83 99.95" stroke="#1e1e1e" stroke-width="2" fill="none"></path></g><g transform="translate(2420.8850119991166 884.4782388366013) rotate(0 18.399227265313016 50.165837231678466)"><path d="M37.06 74.95 C38.38 82.5, 35.6 87.76, 36.83 99.95 M37.06 74.95 C38.18 79.77, 37.92 85.2, 36.83 99.95" stroke="#1e1e1e" stroke-width="2" fill="none"></path></g></g><mask></mask><g stroke-linecap="round"><g transform="translate(2469.345891588353 1244.6939210088426) rotate(0 -6.274846560361652 -81.24114871712646)"><path d="M-0.87 -0.15 C-2.75 -27.15, -9.74 -135.12, -11.68 -162.33" stroke="#1e1e1e" stroke-width="2.5" fill="none" stroke-dasharray="8 10"></path></g><g transform="translate(2469.345891588353 1244.6939210088426) rotate(0 -6.274846560361652 -81.24114871712646)"><path d="M-1.56 -139.47 C-4.47 -144.89, -6.85 -152.38, -11.68 -162.33" stroke="#1e1e1e" stroke-width="2.5" fill="none"></path></g><g transform="translate(2469.345891588353 1244.6939210088426) rotate(0 -6.274846560361652 -81.24114871712646)"><path d="M-18.63 -138.32 C-16.94 -143.92, -14.74 -151.73, -11.68 -162.33" stroke="#1e1e1e" stroke-width="2.5" fill="none"></path></g></g><mask></mask><g stroke-linecap="round" transform="translate(1400.9115971186548 985.6986983151551) rotate(0 102.28974553879269 43.48066999885316)"><path d="M21.74 0 C56.38 -2.22, 91.74 1, 182.84 0 M182.84 0 C196.81 -1.39, 203.1 8.92, 204.58 21.74 M204.58 21.74 C203.06 31.33, 206.69 41.24, 204.58 65.22 M204.58 65.22 C204.26 77.79, 198.81 87.37, 182.84 86.96 M182.84 86.96 C125.59 86.48, 69.72 83.89, 21.74 86.96 M21.74 86.96 C9.12 87.12, -1.12 77.73, 0 65.22 M0 65.22 C1.52 52.54, 1.69 40.99, 0 21.74 M0 21.74 C-0.93 7.3, 8.39 0.48, 21.74 0" stroke="#1e1e1e" stroke-width="2.5" fill="none" stroke-dasharray="1.5 8"></path></g><g transform="translate(1451.2321188970427 1014.2704022659052) rotate(0 56.17242431640625 12.77782529158469)"><text x="0" y="17.909399928685126" font-family="Virgil, Segoe UI Emoji" font-size="20.444520466535533px" fill="#1e1e1e" text-anchor="start" style="white-space: pre;" direction="ltr" dominant-baseline="alphabetic">emailSender</text></g><g stroke-linecap="round"><g transform="translate(1610.9767583580465 857.3468263492798) rotate(0 -34.723734838013996 56.91618799462984)"><path d="M-0.05 -1.19 C-11.64 17.65, -58.06 94.46, -69.4 113.72 M-1.53 0.8 C-12.74 19.74, -55.86 95.86, -67.03 115.02" stroke="#1e1e1e" stroke-width="2" fill="none"></path></g><g transform="translate(1610.9767583580465 857.3468263492798) rotate(0 -34.723734838013996 56.91618799462984)"><path d="M-62.75 90.39 C-65.92 97.02, -66.04 106.89, -67.03 115.02 M-62.75 90.39 C-63.18 97.74, -64.59 106.5, -67.03 115.02" stroke="#1e1e1e" stroke-width="2" fill="none"></path></g><g transform="translate(1610.9767583580465 857.3468263492798) rotate(0 -34.723734838013996 56.91618799462984)"><path d="M-47.92 98.9 C-55.78 102.87, -60.54 110.07, -67.03 115.02 M-47.92 98.9 C-53.03 103.7, -59.11 109.78, -67.03 115.02" stroke="#1e1e1e" stroke-width="2" fill="none"></path></g></g><mask></mask><g stroke-linecap="round" transform="translate(1703.8792095067015 983.4375985407373) rotate(0 102.28974553879272 43.48066999885316)"><path d="M21.74 0 C63.71 2.7, 104.54 0.92, 182.84 0 M182.84 0 C195.42 0.21, 203.81 5.79, 204.58 21.74 M204.58 21.74 C203.18 28.9, 203.61 41.33, 204.58 65.22 M204.58 65.22 C203.89 79.18, 196.8 88.67, 182.84 86.96 M182.84 86.96 C140.59 86.53, 98.09 83.99, 21.74 86.96 M21.74 86.96 C5.73 86.25, 0.55 79.05, 0 65.22 M0 65.22 C-1.46 54.32, 2.01 39.49, 0 21.74 M0 21.74 C1.37 6.91, 9.14 -1.48, 21.74 0" stroke="#1e1e1e" stroke-width="2.5" fill="none" stroke-dasharray="1.5 8"></path></g><g transform="translate(1754.1997312850895 1012.0093024914872) rotate(0 47.01643371582031 12.77782529158469)"><text x="0" y="17.909399928685126" font-family="Virgil, Segoe UI Emoji" font-size="20.444520466535533px" fill="#1e1e1e" text-anchor="start" style="white-space: pre;" direction="ltr" dominant-baseline="alphabetic">emailRepo</text></g><g stroke-linecap="round"><g transform="translate(1707.3576385635795 860.7382477218064) rotate(0 29.767026960811535 54.64701860275403)"><path d="M-0.67 0.03 C9.44 18.31, 50.04 90.8, 60.2 109.06 M1.18 -1 C11.19 17.49, 49.57 91.64, 59.32 110.29" stroke="#1e1e1e" stroke-width="2" fill="none"></path></g><g transform="translate(1707.3576385635795 860.7382477218064) rotate(0 29.767026960811535 54.64701860275403)"><path d="M40.9 93.4 C45.67 98.13, 49.44 102.73, 59.32 110.29 M40.9 93.4 C47.14 98.02, 51.23 102.97, 59.32 110.29" stroke="#1e1e1e" stroke-width="2" fill="none"></path></g><g transform="translate(1707.3576385635795 860.7382477218064) rotate(0 29.767026960811535 54.64701860275403)"><path d="M56.07 85.5 C56.84 92.21, 56.65 98.87, 59.32 110.29 M56.07 85.5 C57.77 92.46, 57.37 99.75, 59.32 110.29" stroke="#1e1e1e" stroke-width="2" fill="none"></path></g></g><mask></mask><g stroke-linecap="round" transform="translate(989.0124597191381 1448.4095505731514) rotate(0 95.20052162851118 40.46722809646781)"><path d="M20.23 0 C62.42 -1.79, 105.97 -1.05, 170.17 0 M20.23 0 C60.75 -0.11, 101.09 1.78, 170.17 0 M170.17 0 C182.53 -1.84, 188.47 6.87, 190.4 20.23 M170.17 0 C184.1 -0.24, 191.47 4.79, 190.4 20.23 M190.4 20.23 C192.17 28.22, 190.78 39.4, 190.4 60.7 M190.4 20.23 C189.26 34.46, 190.51 48.84, 190.4 60.7 M190.4 60.7 C190.82 72.27, 183.15 80.42, 170.17 80.93 M190.4 60.7 C188.83 76.16, 181.68 82.8, 170.17 80.93 M170.17 80.93 C120.18 83.08, 67.66 81.91, 20.23 80.93 M170.17 80.93 C110.2 80.05, 51.57 80.26, 20.23 80.93 M20.23 80.93 C8.61 81.59, 1.55 74.98, 0 60.7 M20.23 80.93 C5.25 80.3, 1.22 73.23, 0 60.7 M0 60.7 C0.89 47.93, -0.42 36.62, 0 20.23 M0 60.7 C-0.1 47.39, 1.25 34.08, 0 20.23 M0 20.23 C1.38 7.81, 7.97 1.42, 20.23 0 M0 20.23 C-1.89 5.08, 8.89 -1.5, 20.23 0" stroke="#1e1e1e" stroke-width="2" fill="none"></path></g><g transform="translate(1025.039358215281 1477.3139366325197) rotate(0 52.98834228515625 11.784219330221731)"><text x="0" y="16.516761813238848" font-family="Virgil, Segoe UI Emoji" font-size="18.85475092835485px" fill="#1e1e1e" text-anchor="start" style="white-space: pre;" direction="ltr" dominant-baseline="alphabetic">EmailSender</text></g><g stroke-linecap="round"><g transform="translate(1133.148803963885 1432.3529369347762) rotate(0 173.9605084942115 -174.81329176793258)"><path d="M-0.78 -0.88 C57.41 -58.94, 290.39 -290.99, 348.7 -348.75" stroke="#1e1e1e" stroke-width="2.5" fill="none" stroke-dasharray="8 10"></path></g><g transform="translate(1133.148803963885 1432.3529369347762) rotate(0 173.9605084942115 -174.81329176793258)"><path d="M338.06 -326.12 C339.49 -331.09, 342.18 -336.49, 348.7 -348.75" stroke="#1e1e1e" stroke-width="2.5" fill="none"></path></g><g transform="translate(1133.148803963885 1432.3529369347762) rotate(0 173.9605084942115 -174.81329176793258)"><path d="M326.01 -338.25 C330.6 -339.92, 336.48 -342.1, 348.7 -348.75" stroke="#1e1e1e" stroke-width="2.5" fill="none"></path></g></g><mask></mask><g stroke-linecap="round" transform="translate(1366.5918196345247 1434.8439169669318) rotate(0 95.20052162851118 40.46722809646781)"><path d="M20.23 0 C69.8 -0.73, 116.55 1.79, 170.17 0 M20.23 0 C55.33 1.58, 89.55 0.25, 170.17 0 M170.17 0 C182.56 -1.19, 192.17 7.68, 190.4 20.23 M170.17 0 C183.83 -1.43, 191.7 7.22, 190.4 20.23 M190.4 20.23 C192.2 32.63, 191.48 48.05, 190.4 60.7 M190.4 20.23 C190.63 32.71, 190.13 43.58, 190.4 60.7 M190.4 60.7 C190.61 72.32, 182.69 82.58, 170.17 80.93 M190.4 60.7 C190.19 75.15, 182.89 82.22, 170.17 80.93 M170.17 80.93 C112.93 80.22, 58.85 81.72, 20.23 80.93 M170.17 80.93 C125.73 81.1, 82.46 82.63, 20.23 80.93 M20.23 80.93 C4.83 80.12, -1.39 76.04, 0 60.7 M20.23 80.93 C6.85 81.59, -1.14 74.31, 0 60.7 M0 60.7 C-1.94 47.73, -2.09 34.36, 0 20.23 M0 60.7 C-1.06 46.43, 0.57 32.39, 0 20.23 M0 20.23 C0.55 5.89, 7.42 1.5, 20.23 0 M0 20.23 C-0.75 5.3, 5.25 1.09, 20.23 0" stroke="#1e1e1e" stroke-width="2" fill="none"></path></g><g transform="translate(1428.6196844985532 1463.7483030263002) rotate(0 33.53227996826172 11.784219330221731)"><text x="0" y="16.516761813238848" font-family="Virgil, Segoe UI Emoji" font-size="18.85475092835485px" fill="#1e1e1e" text-anchor="start" style="white-space: pre;" direction="ltr" dominant-baseline="alphabetic">Queries</text></g><g stroke-linecap="round"><g transform="translate(1491.67105739077 1418.787344835666) rotate(0 127.55159319264065 -167.66817477922973)"><path d="M-0.02 0.34 C42.35 -55.76, 212.53 -279.5, 255.12 -335.68" stroke="#1e1e1e" stroke-width="2.5" fill="none" stroke-dasharray="8 10"></path></g><g transform="translate(1491.67105739077 1418.787344835666) rotate(0 127.55159319264065 -167.66817477922973)"><path d="M247.72 -311.8 C250.9 -320.51, 254.44 -328.81, 255.12 -335.68" stroke="#1e1e1e" stroke-width="2.5" fill="none"></path></g><g transform="translate(1491.67105739077 1418.787344835666) rotate(0 127.55159319264065 -167.66817477922973)"><path d="M234.1 -322.14 C242.49 -326.96, 251.16 -331.36, 255.12 -335.68" stroke="#1e1e1e" stroke-width="2.5" fill="none"></path></g></g><mask></mask><g stroke-linecap="round"><g transform="translate(1464.053233501908 1525.0520610389717) rotate(0 0.4243927272763557 197.124886756018)"><path d="M-0.03 1.07 C0.02 66.88, 0.15 328.46, 0.15 393.66 M-1.5 0.59 C-1.08 66.12, 1.72 326.27, 2.35 391.67" stroke="#1e1e1e" stroke-width="2" fill="none"></path></g><g transform="translate(1464.053233501908 1525.0520610389717) rotate(0 0.4243927272763557 197.124886756018)"><path d="M-6.44 368.27 C-2.35 373.39, -1.18 379.86, 2.35 391.67 M-6.44 368.27 C-3.92 372.54, -2.41 377.77, 2.35 391.67" stroke="#1e1e1e" stroke-width="2" fill="none"></path></g><g transform="translate(1464.053233501908 1525.0520610389717) rotate(0 0.4243927272763557 197.124886756018)"><path d="M10.66 368.09 C9.82 373.26, 6.06 379.78, 2.35 391.67 M10.66 368.09 C9.66 372.41, 7.64 377.68, 2.35 391.67" stroke="#1e1e1e" stroke-width="2" fill="none"></path></g></g><mask></mask><g stroke-linecap="round" transform="translate(1026.9521958535784 1906.3456165729929) rotate(0 48.217029756591415 48.21702975659139)"><path d="M62.95 1.4 C70.53 3, 78.47 9.1, 83.84 14.97 C89.2 20.84, 93.52 28.83, 95.13 36.63 C96.75 44.42, 95.88 54.11, 93.54 61.75 C91.19 69.39, 86.65 77.02, 81.07 82.45 C75.49 87.89, 67.71 92.24, 60.05 94.36 C52.4 96.47, 43.03 97.47, 35.15 95.14 C27.27 92.82, 18.58 86.49, 12.79 80.38 C6.99 74.28, 2.22 66.09, 0.39 58.5 C-1.44 50.91, -0.7 42.4, 1.83 34.82 C4.36 27.24, 9.59 18.44, 15.58 13.03 C21.57 7.61, 29.48 3.82, 37.77 2.32 C46.06 0.81, 60.42 3.65, 65.31 4.01 C70.21 4.36, 67.34 3.7, 67.13 4.44 M41.22 0.56 C48.63 -1.41, 57.22 0.27, 64.53 2.94 C71.85 5.62, 79.68 10.47, 85.11 16.59 C90.55 22.71, 95.71 31.33, 97.16 39.64 C98.61 47.96, 96.94 58.94, 93.84 66.48 C90.73 74.02, 84.63 79.75, 78.51 84.88 C72.39 90.01, 64.77 95.79, 57.11 97.26 C49.44 98.72, 40.29 96.87, 32.53 93.67 C24.78 90.46, 16.06 84.06, 10.58 78.02 C5.1 71.99, 1.11 65.33, -0.37 57.44 C-1.85 49.55, -1.07 38.25, 1.68 30.69 C4.43 23.13, 9.51 17, 16.13 12.07 C22.75 7.14, 37.29 2.75, 41.42 1.12 C45.54 -0.51, 41.13 1.53, 40.89 2.27" stroke="#1e1e1e" stroke-width="1" fill="none"></path></g><g stroke-linecap="round" transform="translate(1047.9247514799586 1937.3766404612654) rotate(0 27.031338784074222 17.936682744572636)"><path d="M0 0 C18.87 -1.61, 38.7 -1.52, 54.06 0 M0 0 C19.09 -0.9, 38.75 -0.3, 54.06 0 M54.06 0 C55.65 9.39, 53.46 13.96, 54.06 35.87 M54.06 0 C54.09 7.94, 53.56 15.61, 54.06 35.87 M54.06 35.87 C30.92 34.74, 12 38.13, 0 35.87 M54.06 35.87 C40.33 35.78, 24.9 35.8, 0 35.87 M0 35.87 C-0.53 26.34, 2.13 15.08, 0 0 M0 35.87 C0.55 26.5, -0.52 16.17, 0 0" stroke="#1e1e1e" stroke-width="1" fill="none"></path></g><g stroke-linecap="round"><g transform="translate(1049.3269871186196 1938.010010243074) rotate(0 13.605037841136152 12.006206439364519)"><path d="M0 0 C10.75 8.07, 20.11 17.17, 27.21 24.01 M0 0 C8.06 7.23, 15.99 14.94, 27.21 24.01" stroke="#1e1e1e" stroke-width="1" fill="none"></path></g></g><mask></mask><g stroke-linecap="round"><g transform="translate(1076.2772998050025 1962.3905219117178) rotate(0 12.676258885025419 -12.645618867415578)"><path d="M0 0 C6.45 -5.97, 11.83 -12.22, 25.35 -25.29 M0 0 C4.97 -4.97, 10.32 -10.27, 25.35 -25.29" stroke="#1e1e1e" stroke-width="1" fill="none"></path></g></g><mask></mask><g transform="translate(1010.9292887815565 2025.8533477880696) rotate(0 64.23993682861328 12.5)"><text x="64.23993682861328" y="17.52" font-family="Virgil, Segoe UI Emoji" font-size="20px" fill="#1e1e1e" text-anchor="middle" style="white-space: pre;" direction="ltr" dominant-baseline="alphabetic">SMTP Server</text></g><g stroke-linecap="round"><g transform="translate(1071.777928758971 1539.7482756627326) rotate(0 3.5857919610639186 174.91664152948988)"><path d="M-0.39 1.12 C0.85 59.16, 6.02 290.08, 7.56 347.82 M1.61 0.66 C2.64 58.91, 5.26 291.19, 6.43 349.17" stroke="#1e1e1e" stroke-width="2" fill="none"></path></g><g transform="translate(1071.777928758971 1539.7482756627326) rotate(0 3.5857919610639186 174.91664152948988)"><path d="M-2.48 325.81 C2.09 332.53, 2.39 341.98, 6.43 349.17 M-2.48 325.81 C-1.44 331.64, 0.78 338.19, 6.43 349.17" stroke="#1e1e1e" stroke-width="2" fill="none"></path></g><g transform="translate(1071.777928758971 1539.7482756627326) rotate(0 3.5857919610639186 174.91664152948988)"><path d="M14.62 325.55 C13.86 332.3, 8.83 341.82, 6.43 349.17 M14.62 325.55 C11.41 331.59, 9.38 338.19, 6.43 349.17" stroke="#1e1e1e" stroke-width="2" fill="none"></path></g></g><mask></mask><g stroke-linecap="round"><g transform="translate(1976.229956651156 1581.5759442809237) rotate(0 -28.41574402308322 175.60544455428567)"><path d="M-0.12 0.01 C-9.41 58.57, -46.99 292.62, -56.38 351.12 M-1.63 -1.03 C-10.94 57.69, -47.54 293.43, -56.72 352.24" stroke="#1e1e1e" stroke-width="2" fill="none"></path></g><g transform="translate(1976.229956651156 1581.5759442809237) rotate(0 -28.41574402308322 175.60544455428567)"><path d="M-61.55 327.72 C-60.38 335.82, -60.49 341.79, -56.72 352.24 M-61.55 327.72 C-60.8 332.56, -59.94 338.95, -56.72 352.24" stroke="#1e1e1e" stroke-width="2" fill="none"></path></g><g transform="translate(1976.229956651156 1581.5759442809237) rotate(0 -28.41574402308322 175.60544455428567)"><path d="M-44.65 330.35 C-47.71 337.77, -52.06 343.09, -56.72 352.24 M-44.65 330.35 C-47.7 334.45, -50.62 340.25, -56.72 352.24" stroke="#1e1e1e" stroke-width="2" fill="none"></path></g></g><mask></mask><g stroke-linecap="round"><g transform="translate(2278.1476569222023 1597.402688038339) rotate(0 -36.5507446266908 161.14459798359962)"><path d="M-0.04 -0.64 C-12.03 53.07, -59.96 267.99, -72.17 321.68 M-1.52 1.64 C-13.63 55.55, -61.49 269.46, -73.06 322.93" stroke="#1e1e1e" stroke-width="2" fill="none"></path></g><g transform="translate(2278.1476569222023 1597.402688038339) rotate(0 -36.5507446266908 161.14459798359962)"><path d="M-76.35 298.15 C-76.62 305.24, -75.56 310.24, -73.06 322.93 M-76.35 298.15 C-76.09 305, -74.99 310.55, -73.06 322.93" stroke="#1e1e1e" stroke-width="2" fill="none"></path></g><g transform="translate(2278.1476569222023 1597.402688038339) rotate(0 -36.5507446266908 161.14459798359962)"><path d="M-59.65 301.83 C-64.56 307.9, -68.15 311.87, -73.06 322.93 M-59.65 301.83 C-63.37 307.68, -66.28 312.34, -73.06 322.93" stroke="#1e1e1e" stroke-width="2" fill="none"></path></g></g><mask></mask><g stroke-linecap="round"><g transform="translate(2608.0958367030926 1554.444490286493) rotate(0 -48.90968690609441 188.2384620488291)"><path d="M-0.01 0.68 C-16.31 63.12, -80.76 312.71, -96.98 375.08 M-1.48 -0.01 C-17.99 62.58, -81.68 313.83, -97.81 376.49" stroke="#1e1e1e" stroke-width="2" fill="none"></path></g><g transform="translate(2608.0958367030926 1554.444490286493) rotate(0 -48.90968690609441 188.2384620488291)"><path d="M-100.28 351.61 C-98.15 361.16, -98.78 369.66, -97.81 376.49 M-100.28 351.61 C-99.07 358.07, -98.3 363.9, -97.81 376.49" stroke="#1e1e1e" stroke-width="2" fill="none"></path></g><g transform="translate(2608.0958367030926 1554.444490286493) rotate(0 -48.90968690609441 188.2384620488291)"><path d="M-83.71 355.84 C-87.7 363.84, -94.43 370.77, -97.81 376.49 M-83.71 355.84 C-86.8 361.05, -90.36 365.77, -97.81 376.49" stroke="#1e1e1e" stroke-width="2" fill="none"></path></g></g><mask></mask><g stroke-linecap="round" transform="translate(1841.6325726637401 1432.3530303257728) rotate(0 417.14592875916 96.65575815966201)"><path d="M32 0 C209.24 0.36, 386.34 -0.01, 802.29 0 M802.29 0 C822.62 -1.07, 834.53 12.66, 834.29 32 M834.29 32 C834.65 82.82, 835.6 133.98, 834.29 161.31 M834.29 161.31 C834.72 182.12, 824.82 194.15, 802.29 193.31 M802.29 193.31 C599.78 193.9, 398.23 194.17, 32 193.31 M32 193.31 C10.37 194.71, 1.64 183.8, 0 161.31 M0 161.31 C0.99 130.46, 2.14 96.76, 0 32 M0 32 C-1.27 10.04, 12.59 -1.95, 32 0" stroke="#1e1e1e" stroke-width="2.5" fill="none" stroke-dasharray="1.5 8"></path></g><g stroke-linecap="round"><g transform="translate(2368.004139716457 1415.395881956031) rotate(0 15.99587146190845 -34.14121268557244)"><path d="M-0.9 -0.26 C4.57 -11.47, 27.04 -56.46, 32.9 -68.02" stroke="#1e1e1e" stroke-width="2.5" fill="none" stroke-dasharray="8 10"></path></g><g transform="translate(2368.004139716457 1415.395881956031) rotate(0 15.99587146190845 -34.14121268557244)"><path d="M29.99 -43.19 C30.6 -51.9, 33.48 -57.24, 32.9 -68.02" stroke="#1e1e1e" stroke-width="2.5" fill="none"></path></g><g transform="translate(2368.004139716457 1415.395881956031) rotate(0 15.99587146190845 -34.14121268557244)"><path d="M14.71 -50.86 C19.89 -57.13, 27.4 -60.15, 32.9 -68.02" stroke="#1e1e1e" stroke-width="2.5" fill="none"></path></g></g><mask></mask><g stroke-linecap="round"><g transform="translate(2069.4005743989946 1421.0482370745387) rotate(0 -29.788364103154493 -33.779083104452184)"><path d="M-0.36 -0.12 C-10.52 -11.45, -50.06 -56.2, -60.06 -67.44 M1.65 -1.23 C-8.78 -12.47, -51.31 -55.38, -61.23 -66.29" stroke="#1e1e1e" stroke-width="2" fill="none"></path></g><g transform="translate(2069.4005743989946 1421.0482370745387) rotate(0 -29.788364103154493 -33.779083104452184)"><path d="M-38.82 -55.21 C-47.52 -60.14, -56.99 -64.88, -61.23 -66.29 M-38.82 -55.21 C-43.96 -57.22, -48.88 -59.91, -61.23 -66.29" stroke="#1e1e1e" stroke-width="2" fill="none"></path></g><g transform="translate(2069.4005743989946 1421.0482370745387) rotate(0 -29.788364103154493 -33.779083104452184)"><path d="M-51.19 -43.4 C-55.28 -52.75, -60.09 -61.93, -61.23 -66.29 M-51.19 -43.4 C-53.43 -48.07, -55.52 -53.47, -61.23 -66.29" stroke="#1e1e1e" stroke-width="2" fill="none"></path></g></g><mask></mask><g stroke-linecap="round" transform="translate(1019.0234155421156 828.3484107247391) rotate(0 95.20052162851118 40.46722809646781)"><path d="M20.23 0 C56.91 0.75, 90.45 1.82, 170.17 0 M20.23 0 C61.6 -0.43, 102.64 -2.05, 170.17 0 M170.17 0 C183.09 -1.28, 189.74 6.7, 190.4 20.23 M170.17 0 C183.4 -1.5, 189.48 8.68, 190.4 20.23 M190.4 20.23 C191.42 34.78, 189.04 48.59, 190.4 60.7 M190.4 20.23 C190.15 29.81, 191.51 40.13, 190.4 60.7 M190.4 60.7 C191.51 74.31, 185.47 79.8, 170.17 80.93 M190.4 60.7 C188.81 74.13, 183.28 80.26, 170.17 80.93 M170.17 80.93 C125.11 81.17, 78.98 80.04, 20.23 80.93 M170.17 80.93 C123.61 78.98, 74.3 79.37, 20.23 80.93 M20.23 80.93 C5.22 81.41, -1.91 74.28, 0 60.7 M20.23 80.93 C8.97 80.13, 2.13 75.9, 0 60.7 M0 60.7 C1.59 51.51, -1.65 39.78, 0 20.23 M0 60.7 C0.12 49.03, 0.77 38.34, 0 20.23 M0 20.23 C-0.34 5.56, 7.22 1.46, 20.23 0 M0 20.23 C0.25 6.07, 7.23 1.58, 20.23 0" stroke="#1e1e1e" stroke-width="2" fill="none"></path></g><g transform="translate(1060.7027521709847 857.2527967841074) rotate(0 43.65131378173828 11.784219330221788)"><text x="0" y="16.516761813238848" font-family="Virgil, Segoe UI Emoji" font-size="18.85475092835485px" fill="#1e1e1e" text-anchor="start" style="white-space: pre;" direction="ltr" dominant-baseline="alphabetic">NotifyJob</text></g><g stroke-linecap="round" transform="translate(1171.0247367926695 866.4815439120209) rotate(0 10.281510220059118 10.281510220059118)"><path d="M8.11 0.48 C10.08 -0.01, 13.4 0.32, 15.42 1.4 C17.44 2.48, 19.53 4.86, 20.23 6.98 C20.92 9.09, 20.35 11.98, 19.6 14.07 C18.84 16.16, 17.57 18.5, 15.69 19.54 C13.8 20.57, 10.52 20.71, 8.28 20.27 C6.04 19.82, 3.69 18.51, 2.24 16.87 C0.79 15.22, -0.48 12.69, -0.44 10.42 C-0.4 8.14, 0.94 4.99, 2.47 3.22 C4 1.45, 7.67 0.33, 8.74 -0.19 C9.81 -0.71, 8.92 -0.19, 8.9 0.11 M7.64 -0.11 C9.66 -0.77, 12.9 -0.56, 15 0.67 C17.11 1.9, 19.39 5.16, 20.27 7.3 C21.15 9.43, 21.02 11.42, 20.3 13.47 C19.58 15.53, 17.94 18.51, 15.95 19.6 C13.96 20.69, 10.49 20.45, 8.36 20.03 C6.24 19.6, 4.69 18.73, 3.21 17.03 C1.72 15.33, -0.39 12.07, -0.54 9.83 C-0.7 7.59, 0.82 5.28, 2.27 3.6 C3.73 1.91, 7.16 0.29, 8.21 -0.26 C9.26 -0.81, 8.5 0.07, 8.58 0.3" stroke="#1e1e1e" stroke-width="1" fill="none"></path></g><g stroke-linecap="round" transform="translate(1175.5871798315266 871.0408859691431) rotate(0 5.653737067686521 5.653737067686507)"><path d="M5.6 0.03 C6.86 -0.07, 8.65 0.7, 9.53 1.51 C10.4 2.32, 10.64 3.68, 10.86 4.89 C11.07 6.1, 11.41 7.8, 10.84 8.78 C10.26 9.77, 8.62 10.44, 7.41 10.8 C6.21 11.16, 4.79 11.31, 3.61 10.95 C2.43 10.59, 0.93 9.77, 0.35 8.66 C-0.23 7.54, -0.11 5.54, 0.15 4.28 C0.42 3.01, 1.03 1.8, 1.94 1.06 C2.85 0.32, 5.01 -0.09, 5.64 -0.17 C6.27 -0.25, 5.77 0.48, 5.73 0.58 M5.8 -0.63 C7.13 -0.45, 9.03 1.35, 10 2.28 C10.96 3.2, 11.48 3.74, 11.6 4.92 C11.72 6.09, 11.51 8.38, 10.73 9.34 C9.95 10.3, 8.01 10.45, 6.9 10.7 C5.78 10.95, 5.17 11.37, 4.02 10.84 C2.87 10.31, 0.65 8.64, 0.01 7.5 C-0.64 6.37, -0.24 5.2, 0.13 4.05 C0.5 2.91, 1.19 1.29, 2.22 0.61 C3.24 -0.08, 5.61 0.03, 6.28 -0.06 C6.94 -0.16, 6.38 -0.07, 6.23 0.05" stroke="#1e1e1e" stroke-width="1" fill="none"></path></g><g stroke-linecap="round"><g transform="translate(1181.240916899213 876.6946230368296) rotate(0 1.7722323864457792 1.0413829368711163)"><path d="M-0.02 -0.27 C0.69 0, 3.36 1.5, 4 1.89 M-0.45 0.36 C0.25 0.84, 3.16 2.16, 3.84 2.35" stroke="#1e1e1e" stroke-width="1" fill="none"></path></g></g><mask></mask><g stroke-linecap="round"><g transform="translate(1181.240916899213 876.6946230368296) rotate(0 0.9117632386332701 -2.034709262103604)"><path d="M0.23 0.01 C0.55 -0.54, 1.6 -2.89, 1.91 -3.56 M-0.08 -0.29 C0.19 -0.92, 1.31 -3.5, 1.64 -4.08" stroke="#1e1e1e" stroke-width="1" fill="none"></path></g></g><mask></mask><g stroke-linecap="round"><g transform="translate(1175.5871798315266 876.6946230368296) rotate(0 0.8253829693707502 -0.02181380589803439)"><path d="M0.02 0.21 C0.33 0.16, 1.7 -0.25, 2.04 -0.25 M-0.39 0.01 C-0.14 0, 1.46 0.14, 1.85 0.07" stroke="#1e1e1e" stroke-width="1" fill="none"></path></g></g><mask></mask><g stroke-linecap="round"><g transform="translate(1181.240916899213 880.4637810819539) rotate(0 0.008187066110352248 0.9068204455089415)"><path d="M0.16 -0.25 C0.19 0.06, 0.19 1.74, 0.2 2.06 M-0.19 0.39 C-0.19 0.58, -0.03 1.26, 0.03 1.53" stroke="#1e1e1e" stroke-width="1" fill="none"></path></g></g><mask></mask><g stroke-linecap="round"><g transform="translate(1181.240916899213 871.0408859691431) rotate(0 0.0731061710719132 1.0243581899711955)"><path d="M0.2 0.18 C0.22 0.51, 0.3 1.45, 0.25 1.72 M-0.12 -0.04 C-0.15 0.36, 0.15 1.73, 0.11 2.08" stroke="#1e1e1e" stroke-width="1" fill="none"></path></g></g><mask></mask><g stroke-linecap="round"><g transform="translate(1185.0100749443372 876.6946230368296) rotate(0 0.8693484780436762 0.1677670054720295)"><path d="M0.25 -0.17 C0.52 -0.22, 1.52 -0.1, 1.78 -0.12 M-0.04 0.52 C0.15 0.5, 1.18 0.36, 1.45 0.26" stroke="#1e1e1e" stroke-width="1" fill="none"></path></g></g><mask></mask><g stroke-linecap="round"><g transform="translate(1222.7728446617343 835.0852027589563) rotate(0 164.63846763268833 -16.08507636519613)"><path d="M0.23 0.53 C55.24 -4.68, 275.4 -25.57, 330.38 -31.13 M-1.11 -0.24 C53.79 -5.78, 274.77 -27.43, 329.9 -32.7" stroke="#1e1e1e" stroke-width="2" fill="none"></path></g><g transform="translate(1222.7728446617343 835.0852027589563) rotate(0 164.63846763268833 -16.08507636519613)"><path d="M307.35 -21.92 C315.63 -24.03, 323.94 -28, 329.9 -32.7 M307.35 -21.92 C313.1 -25.77, 318.47 -26.78, 329.9 -32.7" stroke="#1e1e1e" stroke-width="2" fill="none"></path></g><g transform="translate(1222.7728446617343 835.0852027589563) rotate(0 164.63846763268833 -16.08507636519613)"><path d="M305.69 -38.94 C314.55 -35.45, 323.4 -33.82, 329.9 -32.7 M305.69 -38.94 C311.71 -38.58, 317.49 -35.36, 329.9 -32.7" stroke="#1e1e1e" stroke-width="2" fill="none"></path></g></g><mask></mask><g transform="translate(2858.3908798278853 22.800991457593) rotate(0 167.42942403768814 28.171626584145912)"><text x="167.4294240376882" y="39.48535182033892" font-family="Virgil, Segoe UI Emoji" font-size="45.07460253463347px" fill="#1e1e1e" text-anchor="middle" style="white-space: pre;" direction="ltr" dominant-baseline="alphabetic">Scheduled task</text></g><g transform="translate(2929.98447256239 142.9811563390985) rotate(0 88.90840148925781 28.171626584145912)"><text x="88.90840148925781" y="39.48535182033892" font-family="Virgil, Segoe UI Emoji" font-size="45.07460253463347px" fill="#1e1e1e" text-anchor="middle" style="white-space: pre;" direction="ltr" dominant-baseline="alphabetic">Depends</text></g><g stroke-linecap="round"><g transform="translate(2853.96686689139 179.51727943008552) rotate(0 -77.51474594166939 -5.460687495665141)"><path d="M-0.86 0.3 C-26.92 -1.66, -129.65 -9.21, -155.57 -11.22 M0.88 -0.58 C-25.3 -2.43, -129.61 -8.16, -155.91 -9.88" stroke="#1e1e1e" stroke-width="2" fill="none"></path></g><g transform="translate(2853.96686689139 179.51727943008552) rotate(0 -77.51474594166939 -5.460687495665141)"><path d="M-131.95 -17.02 C-140.12 -12.68, -149.96 -11.39, -155.91 -9.88 M-131.95 -17.02 C-138.12 -14.89, -142.97 -13.87, -155.91 -9.88" stroke="#1e1e1e" stroke-width="2" fill="none"></path></g><g transform="translate(2853.96686689139 179.51727943008552) rotate(0 -77.51474594166939 -5.460687495665141)"><path d="M-132.97 0.05 C-140.85 -1.81, -150.31 -6.72, -155.91 -9.88 M-132.97 0.05 C-138.82 -1.66, -143.45 -4.46, -155.91 -9.88" stroke="#1e1e1e" stroke-width="2" fill="none"></path></g></g><mask></mask><g transform="translate(2927.9047556989935 236.93693782141648) rotate(0 117.97373962402344 28.171626584145926)"><text x="117.97373962402344" y="39.48535182033892" font-family="Virgil, Segoe UI Emoji" font-size="45.07460253463347px" fill="#1e1e1e" text-anchor="middle" style="white-space: pre;" direction="ltr" dominant-baseline="alphabetic">Implements</text></g><g stroke-linecap="round"><g transform="translate(2879.7469665088074 273.4730609124035) rotate(0 -77.67213664441806 -4.630240107969826)"><path d="M0.47 0.47 C-25.68 -1.21, -129.49 -7.77, -155.81 -9.73" stroke="#1e1e1e" stroke-width="2.5" fill="none" stroke-dasharray="8 10"></path></g><g transform="translate(2879.7469665088074 273.4730609124035) rotate(0 -77.67213664441806 -4.630240107969826)"><path d="M-131.79 -16.66 C-140.39 -12.35, -148.7 -12.37, -155.81 -9.73" stroke="#1e1e1e" stroke-width="2.5" fill="none"></path></g><g transform="translate(2879.7469665088074 273.4730609124035) rotate(0 -77.67213664441806 -4.630240107969826)"><path d="M-132.96 0.4 C-141.14 -1.97, -149 -8.66, -155.81 -9.73" stroke="#1e1e1e" stroke-width="2.5" fill="none"></path></g></g><mask></mask><g stroke-linecap="round" transform="translate(2729.4317824123273 347.7345503072419) rotate(0 83.54774660328599 35.513941109840744)"><path d="M17.76 0 C59.56 0.72, 101.23 1.07, 149.34 0 M149.34 0 C163.11 1.98, 165.37 7.62, 167.1 17.76 M167.1 17.76 C166.2 30.18, 166.85 40.17, 167.1 53.27 M167.1 53.27 C167.87 65.36, 162.2 70.18, 149.34 71.03 M149.34 71.03 C98.51 71.65, 51.21 69.69, 17.76 71.03 M17.76 71.03 C6.73 71.51, -0.64 66.83, 0 53.27 M0 53.27 C0.99 45.27, -0.44 36.7, 0 17.76 M0 17.76 C-1.77 6.17, 5.03 -1.09, 17.76 0" stroke="#1e1e1e" stroke-width="2.5" fill="none" stroke-dasharray="1.5 8"></path></g><g transform="translate(2950.5393493251645 351.46029987107977) rotate(0 107.15872955322266 28.17162658414592)"><text x="107.15872955322266" y="39.48535182033892" font-family="Virgil, Segoe UI Emoji" font-size="45.07460253463347px" fill="#1e1e1e" text-anchor="middle" style="white-space: pre;" direction="ltr" dominant-baseline="alphabetic">Interface</text></g><g stroke-linecap="round" transform="translate(2730.4720071425077 449.2884525391019) rotate(0 88.53508588080024 37.63392735240771)"><path d="M18.82 0 C72.07 0.72, 124.36 -0.04, 158.25 0 M18.82 0 C56.26 -1.25, 91.77 -1.12, 158.25 0 M158.25 0 C171.94 -1.94, 175.79 5.86, 177.07 18.82 M158.25 0 C172.73 0.59, 177.86 5.62, 177.07 18.82 M177.07 18.82 C177.99 28.92, 179.06 43.86, 177.07 56.45 M177.07 18.82 C176.19 27.3, 176.95 34.24, 177.07 56.45 M177.07 56.45 C178.24 69.1, 172.26 76.15, 158.25 75.27 M177.07 56.45 C178.53 66.71, 169.18 75, 158.25 75.27 M158.25 75.27 C120.27 73.73, 84.63 73.92, 18.82 75.27 M158.25 75.27 C117.03 74.42, 77.81 74.02, 18.82 75.27 M18.82 75.27 C5.9 75.76, -1.58 70.76, 0 56.45 M18.82 75.27 C7.8 76.29, -0.41 71.11, 0 56.45 M0 56.45 C0.08 49.05, -1.07 38.21, 0 18.82 M0 56.45 C-0.11 49.1, 0.79 39.84, 0 18.82 M0 18.82 C-1.64 8, 6.55 0.9, 18.82 0 M0 18.82 C-0.78 3.98, 4.11 -1.5, 18.82 0" stroke="#1e1e1e" stroke-width="2" fill="none"></path></g><g transform="translate(2981.1253417595117 447.90119120799363) rotate(0 72.95626068115234 28.17162658414592)"><text x="72.95626068115234" y="39.48535182033892" font-family="Virgil, Segoe UI Emoji" font-size="45.07460253463347px" fill="#1e1e1e" text-anchor="middle" style="white-space: pre;" direction="ltr" dominant-baseline="alphabetic">Struct</text></g><g stroke-linecap="round"><g transform="translate(3077.657464054272 1415.3215187021135) rotate(0 -229.2458188808955 -53.64565245212805)"><path d="M-0.99 0.32 C-40.37 -18.8, -159.98 -114.9, -236.34 -114.04 C-312.71 -113.17, -422.39 -14.38, -459.18 5.5 M0.69 -0.56 C-38.31 -19.52, -157.85 -113.63, -234.09 -112.41 C-310.33 -111.19, -419.14 -13.01, -456.77 6.75" stroke="#1e1e1e" stroke-width="2" fill="none"></path></g><g transform="translate(3077.657464054272 1415.3215187021135) rotate(0 -229.2458188808955 -53.64565245212805)"><path d="M-442.16 -13.54 C-445.85 -9.1, -450.41 -3.19, -456.77 6.75 M-442.16 -13.54 C-445.76 -8.44, -449.95 -0.93, -456.77 6.75" stroke="#1e1e1e" stroke-width="2" fill="none"></path></g><g transform="translate(3077.657464054272 1415.3215187021135) rotate(0 -229.2458188808955 -53.64565245212805)"><path d="M-432.54 0.6 C-439.15 0.77, -446.57 2.5, -456.77 6.75 M-432.54 0.6 C-439.05 1.59, -446.02 5.02, -456.77 6.75" stroke="#1e1e1e" stroke-width="2" fill="none"></path></g></g><mask></mask><g transform="translate(2903.364773819839 1453.1414689696537) rotate(0 400.76373291015625 112.68650633658365)"><text x="400.76373291015625" y="39.48535182033892" font-family="Virgil, Segoe UI Emoji" font-size="45.07460253463347px" fill="#1e1e1e" text-anchor="middle" style="white-space: pre;" direction="ltr" dominant-baseline="alphabetic">They all depend from HTTPClient</text><text x="400.76373291015625" y="95.82860498863076" font-family="Virgil, Segoe UI Emoji" font-size="45.07460253463347px" fill="#1e1e1e" text-anchor="middle" style="white-space: pre;" direction="ltr" dominant-baseline="alphabetic">and</text><text x="400.76373291015625" y="152.1718581569226" font-family="Virgil, Segoe UI Emoji" font-size="45.07460253463347px" fill="#1e1e1e" text-anchor="middle" style="white-space: pre;" direction="ltr" dominant-baseline="alphabetic">implement CurrencyProvider interface</text><text x="400.76373291015625" y="208.51511132521443" font-family="Virgil, Segoe UI Emoji" font-size="45.07460253463347px" fill="#1e1e1e" text-anchor="middle" style="white-space: pre;" direction="ltr" dominant-baseline="alphabetic">so i grouped them</text></g><g transform="translate(148.80121944699067 379.1762183270737) rotate(0 295.3609313964844 47.1632885488932)"><text x="295.3609313964844" y="66.1040652301287" font-family="Virgil, Segoe UI Emoji" font-size="75.46126167822912px" fill="#1e1e1e" text-anchor="middle" style="white-space: pre;" direction="ltr" dominant-baseline="alphabetic">Transport layer</text></g><g transform="translate(56.518742375988495 836.7999877418465) rotate(0 361.1182556152344 47.163288548893206)"><text x="361.1182556152344" y="66.1040652301287" font-family="Virgil, Segoe UI Emoji" font-size="75.46126167822912px" fill="#1e1e1e" text-anchor="middle" style="white-space: pre;" direction="ltr" dominant-baseline="alphabetic">Business logic layer</text></g><g transform="translate(10 1379.475553640519) rotate(0 353.08251953125 47.163288548893206)"><text x="353.08251953125" y="66.1040652301287" font-family="Virgil, Segoe UI Emoji" font-size="75.46126167822912px" fill="#1e1e1e" text-anchor="middle" style="white-space: pre;" direction="ltr" dominant-baseline="alphabetic">Data access layer</text></g></svg>